<svg width="45" height="45" viewBox="0 0 45 45" fill="none" xmlns="http://www.w3.org/2000/svg">
<path d="M0 0H45V45H0V0Z" fill="#FEF4E3"/>
<path d="M29.6292 19.8358L29.1766 23.7554C29.1579 23.9342 29.074 24.1 28.9411 24.2211C28.8082 24.3422 28.6354 24.4104 28.4556 24.4125H24.3647L24.3442 36.0332C24.3456 36.1709 24.2928 36.3037 24.1971 36.4027C24.1014 36.5017 23.9706 36.5591 23.8329 36.5625H19.6883C19.6194 36.5626 19.5512 36.5487 19.4877 36.5217C19.4243 36.4947 19.367 36.4552 19.3193 36.4056C19.2715 36.3559 19.2343 36.2971 19.2098 36.2327C19.1854 36.1682 19.1742 36.0995 19.1769 36.0307V24.4125H16.1087C16.0124 24.4115 15.9171 24.3915 15.8285 24.3537C15.7399 24.3159 15.6595 24.261 15.5921 24.1922C15.5247 24.1233 15.4715 24.0418 15.4355 23.9524C15.3996 23.863 15.3816 23.7674 15.3826 23.671L15.3673 19.7514C15.3659 19.6547 15.3836 19.5587 15.4194 19.4688C15.4551 19.379 15.5083 19.297 15.5757 19.2277C15.6431 19.1584 15.7235 19.103 15.8124 19.0648C15.9012 19.0265 15.9967 19.0062 16.0934 19.0048H19.1769V15.2207C19.1769 10.8281 21.7849 8.4375 25.6099 8.4375H28.7445C28.8415 8.4385 28.9372 8.45862 29.0263 8.49672C29.1155 8.53481 29.1962 8.59013 29.2639 8.65949C29.3316 8.72885 29.3849 8.8109 29.4209 8.90092C29.4568 8.99095 29.4746 9.08717 29.4732 9.18409V12.4824C29.4746 12.5793 29.4568 12.6755 29.4209 12.7656C29.3849 12.8556 29.3316 12.9376 29.2639 13.007C29.1962 13.0763 29.1155 13.1317 29.0263 13.1698C28.9372 13.2079 28.8415 13.228 28.7445 13.229H26.8218C24.7431 13.229 24.3391 14.2517 24.3391 15.7295V19.0048H28.9082C29.0121 19.0061 29.1145 19.0294 29.2088 19.0731C29.3031 19.1169 29.387 19.1801 29.4551 19.2585C29.5232 19.337 29.5739 19.429 29.6039 19.5285C29.6339 19.628 29.6425 19.7327 29.6292 19.8358Z" fill="#B78D41"/>
</svg>
