<svg width="45" height="45" viewBox="0 0 45 45" fill="none" xmlns="http://www.w3.org/2000/svg">
<path d="M0.00292867 44.9961L0 0.00935453H36.9532L44.9972 0V44.9961H0.00292867Z" fill="#FEF4E3"/>
<path d="M28.1829 8.4375H16.8153C14.594 8.44021 12.4644 9.32383 10.8936 10.8946C9.32292 12.4653 8.4393 14.5949 8.43659 16.8162V28.1838C8.4393 30.4051 9.32292 32.5347 10.8936 34.1054C12.4644 35.6762 14.594 36.5598 16.8153 36.5625H28.1829C30.4042 36.5598 32.5338 35.6762 34.1045 34.1054C35.6753 32.5347 36.5589 30.4051 36.5616 28.1838V16.8162C36.5589 14.5949 35.6753 12.4653 34.1045 10.8946C32.5338 9.32383 30.4042 8.44021 28.1829 8.4375ZM33.7312 28.1838C33.7315 28.9125 33.5883 29.6341 33.3095 30.3074C33.0308 30.9807 32.6222 31.5925 32.1069 32.1078C31.5916 32.6231 30.9798 33.0317 30.3065 33.3104C29.6332 33.5892 28.9116 33.7324 28.1829 33.7321H16.8153C16.0866 33.7324 15.365 33.5892 14.6916 33.3104C14.0183 33.0317 13.4066 32.6231 12.8913 32.1078C12.376 31.5925 11.9674 30.9807 11.6886 30.3074C11.4099 29.6341 11.2667 28.9125 11.267 28.1838V16.8162C11.267 15.3447 11.8515 13.9335 12.8921 12.893C13.9326 11.8524 15.3438 11.2679 16.8153 11.2679H28.1829C29.6544 11.2679 31.0656 11.8524 32.1061 12.893C33.1466 13.9335 33.7312 15.3447 33.7312 16.8162V28.1838Z" fill="#B78D41"/>
<path d="M22.4998 15.2266C21.0611 15.2266 19.6547 15.6532 18.4585 16.4525C17.2623 17.2518 16.3299 18.3878 15.7794 19.717C15.2288 21.0462 15.0848 22.5088 15.3654 23.9198C15.6461 25.3309 16.3389 26.627 17.3562 27.6443C18.3735 28.6616 19.6696 29.3544 21.0807 29.6351C22.4917 29.9158 23.9543 29.7717 25.2835 29.2211C26.6127 28.6706 27.7487 27.7382 28.548 26.542C29.3473 25.3458 29.774 23.9394 29.774 22.5007C29.7713 20.5723 29.004 18.7237 27.6404 17.3601C26.2768 15.9965 24.4282 15.2293 22.4998 15.2266ZM22.4998 26.947C21.6204 26.947 20.7608 26.6862 20.0296 26.1977C19.2984 25.7091 18.7285 25.0147 18.392 24.2022C18.0554 23.3898 17.9674 22.4958 18.1389 21.6333C18.3105 20.7708 18.734 19.9785 19.3558 19.3567C19.9776 18.7349 20.7699 18.3114 21.6324 18.1398C22.4949 17.9683 23.3889 18.0563 24.2013 18.3929C25.0138 18.7294 25.7082 19.2993 26.1968 20.0305C26.6853 20.7617 26.9461 21.6213 26.9461 22.5007C26.9454 23.6797 26.4768 24.8103 25.6431 25.644C24.8094 26.4777 23.6788 26.9463 22.4998 26.947Z" fill="#B78D41"/>
<path d="M29.8161 17.0246C30.8088 17.0246 31.6135 16.2198 31.6135 15.2271C31.6135 14.2344 30.8088 13.4297 29.8161 13.4297C28.8234 13.4297 28.0186 14.2344 28.0186 15.2271C28.0186 16.2198 28.8234 17.0246 29.8161 17.0246Z" fill="#B78D41"/>
</svg>
