<svg width="45" height="45" viewBox="0 0 45 45" fill="none" xmlns="http://www.w3.org/2000/svg">
<path d="M0 0H45V45H0V0Z" fill="#FEF4E3"/>
<path d="M34.5316 11.6354L34.0559 11.8041L8.23844 20.9039C8.05549 20.9592 7.89647 21.0724 7.78633 21.2256C7.67618 21.3789 7.62112 21.5635 7.62979 21.7507C7.63846 21.9378 7.71036 22.1169 7.83423 22.2598C7.95809 22.4026 8.12692 22.5013 8.31424 22.5402L14.9973 24.33L17.4907 31.4891C17.5623 31.6645 17.6767 31.8203 17.8238 31.9427C17.9709 32.0652 18.1463 32.1506 18.3348 32.1917C18.5233 32.2328 18.7193 32.2282 18.9056 32.1784C19.0919 32.1286 19.2629 32.035 19.4039 31.9058L22.8565 28.7149L29.6363 33.2124C30.4648 33.7646 31.6462 33.3556 31.8579 32.4453L36.3481 13.0365C36.5676 12.0752 35.5327 11.2851 34.5316 11.6354ZM31.2358 15.9436L19.0223 25.7107C18.9017 25.8042 18.823 25.9399 18.8028 26.0891L18.6799 27.0811L18.3428 29.8681C18.3455 29.902 18.3344 29.9356 18.3119 29.9614C18.2893 29.9873 18.2572 30.0034 18.2225 30.0061C18.1879 30.0088 18.1535 29.998 18.1271 29.9759C18.1006 29.9539 18.0842 29.9224 18.0814 29.8885L17.1327 27.1041L16.1525 24.2533C16.1111 24.1251 16.1166 23.9869 16.1681 23.8623C16.2196 23.7377 16.3139 23.6345 16.4348 23.5706L30.8569 15.486C31.1888 15.2968 31.5286 15.7084 31.2358 15.9436Z" fill="#B78D41"/>
</svg>
