<svg width="168" height="168" viewBox="0 0 168 168" fill="none" xmlns="http://www.w3.org/2000/svg">
<circle cx="84" cy="84" r="83.5" fill="white" fill-opacity="0.2" stroke="white"/>
<path d="M83.2776 76.7224L83.2776 77.984L88.8918 77.9841L76.4379 90.4379L77.33 91.33L89.7839 78.8762L89.7839 84.4903L91.0455 84.4903L91.0455 76.7224L83.2776 76.7224Z" fill="white"/>
<path d="M79.7599 158.813L71.9534 158.089L72.9394 147.463L74.1184 147.572L73.2358 157.083L78.6844 157.589L79.567 148.078L80.7459 148.187L79.7599 158.813Z" fill="white"/>
<path d="M60.8127 155.353L61.1027 154.271L65.3063 155.398L66.1266 152.338L62.0467 151.244L62.3367 150.163L66.4166 151.256L67.4896 147.254L63.2861 146.127L63.5761 145.045L68.9233 146.478L66.1599 156.786L60.8127 155.353Z" fill="white"/>
<path d="M55.441 153.311L53.6684 152.532C52.555 152.043 51.8354 151.453 51.5096 150.763C51.1369 149.993 51.1457 149.164 51.536 148.275C51.8705 147.514 52.4145 146.978 53.168 146.668C53.9075 146.364 54.7948 146.439 55.8301 146.893L56.7823 147.312L58.6479 143.063L59.732 143.539L55.441 153.311ZM54.8073 151.809L56.332 148.337L55.4383 147.945C54.7937 147.662 54.2222 147.597 53.7236 147.751C53.2152 147.9 52.8388 148.253 52.5943 148.81C52.0968 149.943 52.5659 150.825 54.0015 151.455L54.8073 151.809Z" fill="white"/>
<path d="M40.7 145.289L41.3003 144.344L44.9744 146.676L46.6723 144.002L43.1063 141.738L43.7066 140.792L47.2726 143.056L49.4937 139.558L45.8196 137.225L46.4199 136.28L51.0936 139.247L45.3737 148.257L40.7 145.289Z" fill="white"/>
<path d="M37.7629 128.794L32.2662 134.803L43.5648 133.45L36.0378 141.679L35.1642 140.88L40.6826 134.847L29.3839 136.2L36.8893 127.995L37.7629 128.794ZM33.0613 142.231L31.9865 141.746C32.0761 141.554 32.1204 141.363 32.1196 141.174C32.1037 140.986 32.0547 140.818 31.9726 140.671C31.8755 140.524 31.8026 140.414 31.7541 140.341C31.6983 140.276 31.6429 140.218 31.5878 140.167C31.5327 140.117 31.47 140.067 31.3999 140.017C31.3225 139.975 31.2104 139.916 31.0635 139.84C30.9016 139.764 30.7302 139.73 30.5494 139.738C30.3535 139.747 30.1635 139.804 29.9795 139.91L29.4015 138.883C29.5122 138.825 29.6422 138.778 29.7915 138.741C29.933 138.697 30.1391 138.661 30.4096 138.634C30.6802 138.607 30.9807 138.658 31.3111 138.787C31.6415 138.915 31.9641 139.124 32.2789 139.412C32.5937 139.7 32.8299 140.002 32.9875 140.32C33.1451 140.638 33.2224 140.932 33.2194 141.204C33.2165 141.476 33.2032 141.688 33.1798 141.84C33.1485 141.985 33.109 142.115 33.0613 142.231Z" fill="white"/>
<path d="M23.567 126.463L25.1573 128.51L32.7003 122.65L33.4267 123.585L25.8837 129.445L27.4739 131.492L26.5895 132.179L22.6826 127.151L23.567 126.463Z" fill="white"/>
<path d="M25.6892 111.034L18.5077 114.875L29.6137 117.354L19.7798 122.614L19.2214 121.57L26.431 117.714L15.3251 115.234L25.1308 109.99L25.6892 111.034Z" fill="white"/>
<path d="M11.4092 101.873L11.0185 99.9935C10.8015 98.9492 10.8548 98.1047 11.1784 97.46C11.5286 96.7336 12.1841 96.2705 13.1449 96.0708C14.043 95.8842 14.7987 96.0866 15.4119 96.6782C15.4401 95.9751 15.6764 95.4085 16.1208 94.9784C16.5527 94.5401 17.0558 94.2612 17.6302 94.1418C18.1001 94.0442 18.5553 94.0585 18.9955 94.1849C19.4336 94.3009 19.8042 94.4853 20.1074 94.7383C20.6884 95.2276 21.0918 96.0153 21.3175 97.1015L21.858 99.7019L11.4092 101.873ZM12.2649 100.486L15.7582 99.7602L15.5759 98.883C15.5434 98.7263 15.5067 98.576 15.4658 98.432C15.4146 98.2901 15.337 98.1264 15.2331 97.941C15.1166 97.7474 14.9857 97.5894 14.8404 97.467C14.693 97.3342 14.4935 97.2395 14.2421 97.1828C13.9906 97.1261 13.7135 97.1293 13.4106 97.1922C13.0868 97.2595 12.8231 97.3797 12.6194 97.5527C12.4052 97.728 12.257 97.9059 12.1747 98.0864C12.0924 98.2669 12.0427 98.4733 12.0256 98.7057C12.0085 98.938 12.0067 99.1127 12.0201 99.2298C12.0335 99.3468 12.0522 99.4628 12.0761 99.5777L12.2649 100.486ZM16.7921 99.5454L20.5205 98.7706L20.2438 97.439C20.068 96.5931 19.7948 96.0125 19.4242 95.6973C18.9945 95.3073 18.4664 95.1773 17.8398 95.3076C17.1401 95.453 16.6902 95.857 16.4901 96.5195C16.3594 96.9389 16.3776 97.5507 16.5447 98.3548L16.7921 99.5454Z" fill="white"/>
<path d="M9.49319 80.8594L14.0581 81.1777L9.80933 76.3264L9.92064 74.7302L14.5373 80.0563L20.5779 75.3131L20.4644 76.9412L15.2763 80.9579L15.5585 81.2824L20.1393 81.6018L20.057 82.783L9.41082 82.0405L9.49319 80.8594Z" fill="white"/>
<path d="M23.0823 64.8003L19.8615 65.2819L18.7599 69.6904L21.3679 71.6614L21.0499 72.9343L11.3902 65.4575L23.4004 63.5275L23.0823 64.8003ZM17.7858 68.9687L18.6624 65.4606L14.0834 66.1635L17.7858 68.9687Z" fill="white"/>
<path d="M17.8706 52.466L16.8551 54.8508L25.6435 58.5931L25.1796 59.6825L16.3913 55.9401L15.3758 58.3249L14.3453 57.8861L16.8402 52.0272L17.8706 52.466Z" fill="white"/>
<path d="M32.2168 46.9923L29.0055 46.451L26.5907 50.3002L28.4586 52.983L27.7614 54.0944L20.8977 43.99L32.9141 45.8809L32.2168 46.9923ZM25.8885 49.312L27.8102 46.2488L23.239 45.4966L25.8885 49.312Z" fill="white"/>
<path d="M27.6131 35.89L31.9998 31.0988L39.871 38.3055L39.0714 39.1788L32.0263 32.7284L29.2387 35.773L33.4634 39.6411C33.8332 39.9797 34.1089 40.2393 34.2905 40.42C34.4642 40.5936 34.6662 40.8942 34.8965 41.322C35.126 41.7346 35.2387 42.1487 35.2343 42.5641C35.2249 43.2063 34.9716 43.7987 34.4746 44.3416C34.3594 44.4675 34.1917 44.6032 33.9716 44.7488L33.1456 43.9925C33.3368 43.8783 33.4937 43.7544 33.6162 43.6207C33.8971 43.3138 34.0289 42.9645 34.0116 42.5727C33.9997 42.3014 33.8963 42.0115 33.7015 41.703C33.4989 41.3873 33.3107 41.1427 33.1369 40.9692C32.9632 40.7956 32.6875 40.536 32.3099 40.1902L27.6131 35.89Z" fill="white"/>
<path d="M49.4778 29.1424C49.2392 30.6243 48.4912 31.8245 47.2336 32.7431C45.976 33.6616 44.6008 34.0122 43.1079 33.7949C41.6237 33.5713 40.4192 32.8264 39.4943 31.5602C38.5632 30.2854 38.2243 28.9082 38.4778 27.4286C38.7249 25.9404 39.4729 24.7402 40.7219 23.8279C41.9709 22.9156 43.3418 22.5682 44.8347 22.7855C46.3212 22.9942 47.53 23.7359 48.4612 25.0108C49.386 26.277 49.7249 27.6542 49.4778 29.1424ZM44.6182 23.954C43.4344 23.762 42.3559 24.0214 41.3825 24.7323C40.4092 25.4433 39.8339 26.3918 39.6568 27.5779C39.4796 28.764 39.7528 29.8524 40.4763 30.843C41.1998 31.8335 42.1535 32.4248 43.3373 32.6169C44.5211 32.809 45.5996 32.5496 46.573 31.8386C47.5463 31.1277 48.1216 30.1792 48.2987 28.993C48.4759 27.8069 48.2027 26.7186 47.4792 25.728C46.7557 24.7374 45.802 24.1461 44.6182 23.954Z" fill="white"/>
<path d="M54.4203 28.1609L49.7245 18.5775L54.0924 16.4373L54.5852 17.4431L51.2806 19.0623L55.4835 27.6399L54.4203 28.1609Z" fill="white"/>
<path d="M67.7725 12.3946L69.7259 12.7143L69.2673 10.7824L70.3351 10.574L70.6367 12.5366L72.3265 11.5058L72.8494 12.4307L71.0692 13.3325L72.5757 14.6197L71.8472 15.3977L70.4479 13.9917L69.6801 15.8206L68.7126 15.3737L69.6244 13.6144L67.6358 13.4483L67.7725 12.3946Z" fill="white"/>
<path d="M87.5984 10.4332L95.4041 11.1648L94.4082 21.7902L93.2294 21.6797L94.1208 12.1694L88.6727 11.6588L87.7813 21.1691L86.6024 21.0586L87.5984 10.4332Z" fill="white"/>
<path d="M106.544 13.9094L106.253 14.9909L102.051 13.8601L101.227 16.9193L105.306 18.0168L105.015 19.0984L100.936 18.0008L99.8596 22.0025L104.062 23.1333L103.771 24.2148L98.4253 22.7764L101.198 12.4709L106.544 13.9094Z" fill="white"/>
<path d="M111.909 15.9542L113.681 16.7343C114.794 17.2243 115.513 17.8147 115.838 18.5056C116.21 19.2755 116.201 20.1046 115.81 20.9929C115.475 21.7544 114.93 22.2897 114.176 22.5989C113.436 22.9025 112.549 22.8266 111.514 22.371L110.563 21.952L108.693 26.1986L107.609 25.7215L111.909 15.9542ZM112.542 17.4563L111.014 20.9269L111.907 21.3202C112.551 21.6038 113.123 21.669 113.622 21.5156C114.13 21.3665 114.507 21.0138 114.752 20.4573C115.25 19.3248 114.782 18.4427 113.347 17.8109L112.542 17.4563Z" fill="white"/>
<path d="M126.644 23.9946L126.043 24.9395L122.371 22.6036L120.67 25.2765L124.234 27.5438L123.633 28.4888L120.069 26.2215L117.845 29.718L121.517 32.0539L120.916 32.9989L116.245 30.0274L121.973 21.0231L126.644 23.9946Z" fill="white"/>
<path d="M129.568 40.4915L135.071 34.4874L123.771 35.8295L131.305 27.6078L132.178 28.4077L126.654 34.4354L137.954 33.0934L130.441 41.2915L129.568 40.4915ZM134.282 27.059L135.357 27.5444C135.267 27.737 135.222 27.9277 135.223 28.1164C135.239 28.3045 135.288 28.4722 135.37 28.6196C135.467 28.7664 135.539 28.8765 135.588 28.9499C135.644 29.0154 135.699 29.0734 135.754 29.1238C135.809 29.1743 135.872 29.2244 135.942 29.2742C136.019 29.3161 136.131 29.3754 136.278 29.452C136.44 29.528 136.611 29.5621 136.792 29.5542C136.988 29.5456 137.178 29.4883 137.362 29.3821L137.939 30.4101C137.828 30.4678 137.698 30.515 137.549 30.5517C137.407 30.5956 137.201 30.631 136.931 30.6579C136.66 30.6848 136.36 30.6338 136.029 30.5047C135.699 30.3757 135.377 30.167 135.062 29.8787C134.748 29.5905 134.512 29.2875 134.354 28.9697C134.197 28.6519 134.12 28.3571 134.123 28.0851C134.126 27.8132 134.14 27.6012 134.163 27.4492C134.195 27.3044 134.235 27.1743 134.282 27.059Z" fill="white"/>
<path d="M143.76 42.8324L142.172 40.7841L134.624 46.6374L133.898 45.7018L141.446 39.8485L139.858 37.8001L140.743 37.1138L144.645 42.1461L143.76 42.8324Z" fill="white"/>
<path d="M141.625 58.2613L148.81 54.4271L137.706 51.9375L147.545 46.6872L148.102 47.7318L140.889 51.581L151.993 54.0706L142.182 59.3058L141.625 58.2613Z" fill="white"/>
<path d="M155.897 67.4345L156.286 69.3147C156.502 70.3593 156.448 71.2037 156.124 71.8481C155.773 72.5742 155.117 73.0367 154.156 73.2355C153.258 73.4213 152.502 73.2181 151.89 72.6259C151.861 73.329 151.624 73.8954 151.179 74.3251C150.747 74.7631 150.243 75.0415 149.669 75.1603C149.199 75.2575 148.744 75.2427 148.304 75.1159C147.866 74.9996 147.495 74.8148 147.192 74.5616C146.612 74.0717 146.209 73.2836 145.984 72.1972L145.446 69.5963L155.897 67.4345ZM155.04 68.8209L151.546 69.5436L151.728 70.421C151.76 70.5777 151.797 70.7281 151.837 70.8722C151.888 71.0141 151.966 71.1778 152.07 71.3633C152.186 71.5571 152.317 71.7152 152.462 71.8377C152.609 71.9706 152.808 72.0655 153.06 72.1224C153.311 72.1794 153.588 72.1765 153.891 72.1138C154.215 72.0469 154.479 71.9269 154.683 71.754C154.897 71.579 155.046 71.4013 155.128 71.2208C155.211 71.0403 155.261 70.834 155.278 70.6016C155.295 70.3693 155.297 70.1946 155.284 70.0776C155.27 69.9605 155.252 69.8445 155.228 69.7296L155.04 68.8209ZM150.512 69.7575L146.783 70.5289L147.058 71.8607C147.233 72.7068 147.506 73.2876 147.876 73.6031C148.306 73.9936 148.834 74.124 149.46 73.9944C150.16 73.8496 150.611 73.446 150.811 72.7836C150.942 72.3644 150.925 71.7526 150.758 70.9483L150.512 69.7575Z" fill="white"/>
<path d="M157.793 88.4519L153.228 88.1293L157.473 92.9846L157.36 94.5806L152.748 89.2503L146.703 93.9879L146.818 92.3599L152.01 88.348L151.728 88.0233L147.147 87.6996L147.231 86.5185L157.876 87.2709L157.793 88.4519Z" fill="white"/>
<path d="M144.191 104.496L147.412 104.017L148.518 99.6098L145.912 97.6363L146.231 96.3638L155.884 103.849L143.872 105.768L144.191 104.496ZM149.491 100.332L148.611 103.84L153.191 103.141L149.491 100.332Z" fill="white"/>
<path d="M149.388 116.839L150.406 114.456L141.621 110.705L142.086 109.616L150.87 113.367L151.888 110.983L152.918 111.423L150.418 117.279L149.388 116.839Z" fill="white"/>
<path d="M135.037 122.296L138.248 122.841L140.667 118.994L138.801 116.309L139.499 115.198L146.354 125.309L134.339 123.407L135.037 122.296ZM141.368 119.983L139.443 123.044L144.014 123.8L141.368 119.983Z" fill="white"/>
<path d="M139.631 133.402L135.24 138.189L127.375 130.975L128.175 130.102L135.215 136.559L138.005 133.517L133.784 129.645C133.414 129.306 133.139 129.046 132.958 128.865C132.784 128.692 132.582 128.391 132.352 127.963C132.123 127.55 132.011 127.136 132.016 126.72C132.026 126.078 132.28 125.486 132.777 124.944C132.892 124.818 133.06 124.682 133.28 124.537L134.106 125.294C133.914 125.408 133.757 125.532 133.635 125.665C133.354 125.972 133.222 126.321 133.238 126.713C133.25 126.984 133.353 127.274 133.548 127.583C133.75 127.899 133.938 128.144 134.112 128.317C134.285 128.491 134.561 128.751 134.938 129.097L139.631 133.402Z" fill="white"/>
<path d="M117.76 140.132C118 138.65 118.749 137.45 120.008 136.533C121.266 135.616 122.642 135.266 124.134 135.485C125.618 135.71 126.822 136.456 127.746 137.723C128.676 138.999 129.013 140.376 128.758 141.856C128.51 143.344 127.761 144.543 126.511 145.454C125.261 146.365 123.89 146.712 122.397 146.493C120.911 146.283 119.703 145.54 118.773 144.264C117.849 142.997 117.512 141.62 117.76 140.132ZM122.615 145.325C123.798 145.518 124.877 145.259 125.851 144.549C126.825 143.839 127.401 142.891 127.58 141.705C127.758 140.519 127.486 139.431 126.763 138.439C126.04 137.448 125.087 136.856 123.904 136.663C122.72 136.47 121.641 136.728 120.667 137.438C119.693 138.148 119.117 139.096 118.939 140.282C118.761 141.468 119.033 142.557 119.755 143.548C120.478 144.539 121.431 145.131 122.615 145.325Z" fill="white"/>
<path d="M112.819 141.113L117.506 150.7L113.136 152.837L112.644 151.83L115.95 150.214L111.755 141.633L112.819 141.113Z" fill="white"/>
<path d="M99.4501 156.864L97.4969 156.543L97.9537 158.475L96.8857 158.682L96.586 156.719L94.8952 157.749L94.3732 156.823L96.1542 155.923L94.6489 154.635L95.3781 153.857L96.7761 155.265L97.5456 153.436L98.5127 153.884L97.5992 155.643L99.5877 155.81L99.4501 156.864Z" fill="white"/>
</svg>
