<svg width="169" height="169" viewBox="0 0 169 169" fill="none" xmlns="http://www.w3.org/2000/svg">
    <path fill-rule="evenodd" clip-rule="evenodd" d="M167.793 84.793C167.793 38.9533 130.633 1.79297 84.793 1.79297C38.9533 1.79297 1.79297 38.9533 1.79297 84.793C1.79297 130.633 38.9533 167.793 84.793 167.793C130.633 167.793 167.793 130.633 167.793 84.793ZM168.793 84.793C168.793 38.401 131.185 0.79297 84.793 0.79297C38.4011 0.792969 0.79297 38.401 0.79297 84.793C0.792969 131.185 38.4011 168.793 84.793 168.793C131.185 168.793 168.793 131.185 168.793 84.793Z" fill="#B78D41"/>
    <path d="M77.5154 85.5154L78.777 85.5153L78.777 79.9012L91.2309 92.3551L92.123 91.4629L79.6692 79.0091L85.2833 79.0091L85.2833 77.7474L77.5153 77.7474L77.5154 85.5154Z" fill="#B78D41"/>
    <path d="M159.607 89.0332L158.883 96.8397L148.257 95.8536L148.366 94.6747L157.877 95.5572L158.383 90.1087L148.872 89.2261L148.981 88.0472L159.607 89.0332Z" fill="#B78D41"/>
    <path d="M156.147 107.98L155.065 107.69L156.192 103.486L153.132 102.666L152.038 106.746L150.956 106.456L152.05 102.376L148.047 101.303L146.92 105.507L145.839 105.217L147.272 99.8695L157.58 102.633L156.147 107.98Z" fill="#B78D41"/>
    <path d="M154.104 113.352L153.325 115.124C152.836 116.238 152.246 116.957 151.556 117.283C150.786 117.656 149.957 117.647 149.068 117.257C148.307 116.922 147.771 116.378 147.461 115.625C147.157 114.885 147.232 113.998 147.686 112.963L148.105 112.01L143.856 110.145L144.332 109.061L154.104 113.352ZM152.602 113.985L149.13 112.461L148.738 113.354C148.455 113.999 148.39 114.57 148.544 115.069C148.693 115.577 149.046 115.954 149.603 116.198C150.736 116.696 151.618 116.227 152.248 114.791L152.602 113.985Z" fill="#B78D41"/>
    <path d="M146.084 128.093L145.138 127.492L147.471 123.818L144.796 122.12L142.532 125.686L141.587 125.086L143.851 121.52L140.352 119.299L138.019 122.973L137.074 122.373L140.041 117.699L149.051 123.419L146.084 128.093Z" fill="#B78D41"/>
    <path d="M129.588 131.03L135.597 136.526L134.244 125.228L142.473 132.755L141.674 133.628L135.641 128.11L136.994 139.409L128.789 131.903L129.588 131.03ZM143.025 135.731L142.54 136.806C142.348 136.717 142.157 136.672 141.968 136.673C141.78 136.689 141.612 136.738 141.465 136.82C141.318 136.917 141.208 136.99 141.135 137.039C141.07 137.094 141.012 137.15 140.961 137.205C140.911 137.26 140.861 137.323 140.811 137.393C140.769 137.47 140.71 137.582 140.634 137.729C140.558 137.891 140.524 138.062 140.532 138.243C140.541 138.439 140.598 138.629 140.704 138.813L139.677 139.391C139.619 139.28 139.572 139.15 139.535 139.001C139.491 138.86 139.455 138.654 139.428 138.383C139.401 138.112 139.452 137.812 139.581 137.481C139.709 137.151 139.918 136.828 140.206 136.514C140.494 136.199 140.796 135.963 141.114 135.805C141.432 135.647 141.726 135.57 141.998 135.573C142.27 135.576 142.482 135.589 142.634 135.613C142.779 135.644 142.909 135.684 143.025 135.731Z" fill="#B78D41"/>
    <path d="M127.257 145.226L129.304 143.635L123.443 136.092L124.378 135.366L130.239 142.909L132.286 141.319L132.973 142.203L127.944 146.11L127.257 145.226Z" fill="#B78D41"/>
    <path d="M111.828 143.104L115.669 150.285L118.148 139.179L123.408 149.013L122.364 149.572L118.508 142.362L116.029 153.468L110.784 143.662L111.828 143.104Z" fill="#B78D41"/>
    <path d="M102.666 157.384L100.786 157.774C99.7418 157.991 98.8973 157.938 98.2527 157.615C97.5262 157.264 97.0631 156.609 96.8635 155.648C96.6768 154.75 96.8793 153.994 97.4709 153.381C96.7678 153.353 96.2012 153.117 95.7711 152.672C95.3327 152.24 95.0538 151.737 94.9345 151.163C94.8368 150.693 94.8512 150.238 94.9776 149.797C95.0935 149.359 95.278 148.989 95.5309 148.686C96.0202 148.105 96.808 147.701 97.8941 147.475L100.495 146.935L102.666 157.384ZM101.279 156.528L100.553 153.035L99.6756 153.217C99.519 153.25 99.3686 153.286 99.2246 153.327C99.0827 153.378 98.9191 153.456 98.7337 153.56C98.54 153.676 98.382 153.807 98.2597 153.953C98.1269 154.1 98.0322 154.299 97.9755 154.551C97.9188 154.802 97.9219 155.08 97.9849 155.382C98.0521 155.706 98.1723 155.97 98.3454 156.174C98.5206 156.388 98.6985 156.536 98.879 156.618C99.0596 156.701 99.266 156.75 99.4983 156.767C99.7307 156.785 99.9054 156.786 100.022 156.773C100.139 156.759 100.255 156.741 100.37 156.717L101.279 156.528ZM100.338 152.001L99.5632 148.273L98.2317 148.549C97.3857 148.725 96.8052 148.998 96.49 149.369C96.0999 149.798 95.97 150.327 96.1002 150.953C96.2456 151.653 96.6496 152.103 97.3122 152.303C97.7316 152.434 98.3433 152.415 99.1475 152.248L100.338 152.001Z" fill="#B78D41"/>
    <path d="M81.6529 159.299L81.9712 154.735L77.1199 158.983L75.5237 158.872L80.8498 154.255L76.1066 148.215L77.7346 148.328L81.7514 153.516L82.0759 153.234L82.3953 148.653L83.5765 148.736L82.834 159.382L81.6529 159.299Z" fill="#B78D41"/>
    <path d="M65.593 145.71L66.0745 148.931L70.483 150.032L72.454 147.424L73.7269 147.742L66.2501 157.402L64.3201 145.392L65.593 145.71ZM69.7613 151.006L66.2532 150.13L66.9561 154.709L69.7613 151.006Z" fill="#B78D41"/>
    <path d="M53.2596 150.922L55.6444 151.937L59.3867 143.149L60.476 143.613L56.7337 152.401L59.1185 153.417L58.6797 154.447L52.8208 151.952L53.2596 150.922Z" fill="#B78D41"/>
    <path d="M47.7866 136.575L47.2453 139.787L51.0945 142.201L53.7774 140.334L54.8888 141.031L44.7843 147.895L46.6752 135.878L47.7866 136.575ZM50.1063 142.904L47.0432 140.982L46.2909 145.553L50.1063 142.904Z" fill="#B78D41"/>
    <path d="M36.6838 141.18L31.8927 136.793L39.0994 128.922L39.9726 129.721L33.5223 136.767L36.5669 139.554L40.4349 135.329C40.7735 134.96 41.0331 134.684 41.2139 134.502C41.3874 134.329 41.688 134.127 42.1158 133.896C42.5285 133.667 42.9425 133.554 43.3579 133.559C44.0001 133.568 44.5926 133.821 45.1354 134.318C45.2613 134.433 45.397 134.601 45.5426 134.821L44.7863 135.647C44.6722 135.456 44.5482 135.299 44.4145 135.177C44.1077 134.896 43.7584 134.764 43.3665 134.781C43.0953 134.793 42.8054 134.897 42.4969 135.091C42.1812 135.294 41.9365 135.482 41.763 135.656C41.5895 135.83 41.3298 136.105 40.9841 136.483L36.6838 141.18Z" fill="#B78D41"/>
    <path d="M29.9363 119.314C31.4182 119.553 32.6184 120.301 33.5369 121.559C34.4555 122.816 34.8061 124.191 34.5888 125.684C34.3652 127.169 33.6203 128.373 32.3541 129.298C31.0792 130.229 29.702 130.568 28.2225 130.314C26.7343 130.067 25.534 129.319 24.6218 128.07C23.7095 126.821 23.362 125.45 23.5794 123.958C23.7881 122.471 24.5298 121.262 25.8047 120.331C27.0709 119.406 28.4481 119.067 29.9363 119.314ZM24.7479 124.174C24.5558 125.358 24.8153 126.436 25.5262 127.41C26.2372 128.383 27.1857 128.958 28.3718 129.135C29.5579 129.313 30.6463 129.039 31.6368 128.316C32.6274 127.592 33.2187 126.639 33.4108 125.455C33.6029 124.271 33.3434 123.193 32.6325 122.219C31.9216 121.246 30.973 120.671 29.7869 120.493C28.6008 120.316 27.5124 120.589 26.5219 121.313C25.5313 122.037 24.94 122.99 24.7479 124.174Z" fill="#B78D41"/>
    <path d="M28.9545 114.373L19.3711 119.068L17.2309 114.701L18.2366 114.208L19.8559 117.512L28.4335 113.309L28.9545 114.373Z" fill="#B78D41"/>
    <path d="M13.1881 101.02L13.5078 99.0662L11.5759 99.5248L11.3675 98.4569L13.33 98.1554L12.2992 96.4655L13.2242 95.9427L14.1259 97.7229L15.4132 96.2164L16.1911 96.9449L14.7851 98.3441L16.6141 99.112L16.1672 100.08L14.4079 99.1676L14.2418 101.156L13.1881 101.02Z" fill="#B78D41"/>
    <path d="M11.2266 81.1943L11.9582 73.3885L22.5836 74.3845L22.4731 75.5633L12.9628 74.6719L12.4522 80.12L21.9625 81.0114L21.852 82.1903L11.2266 81.1943Z" fill="#B78D41"/>
    <path d="M14.7021 62.2489L15.7836 62.5399L14.6528 66.7424L17.712 67.5656L18.8096 63.4866L19.8911 63.7777L18.7936 67.8566L22.7952 68.9333L23.926 64.7308L25.0076 65.0218L23.5691 70.3677L13.2637 67.5947L14.7021 62.2489Z" fill="#B78D41"/>
    <path d="M16.748 56.8828L17.5281 55.1109C18.0181 53.998 18.6085 53.279 19.2995 52.9538C20.0693 52.5818 20.8984 52.5913 21.7868 52.9824C22.5482 53.3177 23.0835 53.8622 23.3927 54.616C23.6964 55.3557 23.6204 56.243 23.1648 57.2778L22.7458 58.2297L26.9924 60.0993L26.5154 61.1829L16.748 56.8828ZM18.2502 56.2505L21.7207 57.7784L22.114 56.8851C22.3977 56.2408 22.4628 55.6693 22.3094 55.1705C22.1604 54.662 21.8076 54.2853 21.2511 54.0403C20.1187 53.5417 19.2366 54.01 18.6048 55.4451L18.2502 56.2505Z" fill="#B78D41"/>
    <path d="M24.7879 42.1484L25.7329 42.7496L23.3969 46.4215L26.0699 48.122L28.3371 44.558L29.2821 45.1592L27.0149 48.7231L30.5113 50.9475L32.8473 47.2755L33.7923 47.8767L30.8208 52.5476L21.8164 46.8193L24.7879 42.1484Z" fill="#B78D41"/>
    <path d="M41.2858 39.2245L35.2817 33.7221L36.6238 45.0221L28.4021 37.4874L29.202 36.6145L35.2297 42.1385L33.8876 30.8386L42.0857 38.3516L41.2858 39.2245ZM27.8533 34.5104L28.3387 33.436C28.5313 33.5258 28.722 33.5703 28.9107 33.5696C29.0988 33.5539 29.2665 33.505 29.4139 33.4231C29.5607 33.3261 29.6708 33.2534 29.7442 33.2049C29.8097 33.1492 29.8677 33.0938 29.9181 33.0387C29.9685 32.9837 30.0187 32.9211 30.0685 32.851C30.1104 32.7737 30.1697 32.6616 30.2463 32.5148C30.3223 32.353 30.3564 32.1816 30.3485 32.0008C30.3399 31.8049 30.2826 31.6148 30.1764 31.4307L31.2044 30.8537C31.2621 30.9644 31.3093 31.0944 31.346 31.2438C31.3899 31.3854 31.4253 31.5914 31.4522 31.862C31.4791 32.1327 31.428 32.4331 31.299 32.7634C31.17 33.0936 30.9613 33.416 30.673 33.7306C30.3848 34.0451 30.0817 34.2811 29.764 34.4384C29.4462 34.5957 29.1513 34.6727 28.8794 34.6695C28.6075 34.6662 28.3955 34.6528 28.2435 34.6292C28.0987 34.5978 27.9686 34.5582 27.8533 34.5104Z" fill="#B78D41"/>
    <path d="M43.6268 25.0327L41.5785 26.621L47.4318 34.1695L46.4962 34.895L40.6428 27.3465L38.5945 28.9349L37.9082 28.0498L42.9405 24.1476L43.6268 25.0327Z" fill="#B78D41"/>
    <path d="M59.0545 27.1679L55.2204 19.9829L52.7307 31.0866L47.4804 21.2478L48.525 20.6904L52.3742 27.9036L54.8639 16.8L60.0991 26.6105L59.0545 27.1679Z" fill="#B78D41"/>
    <path d="M68.2285 12.8955L70.1087 12.5066C71.1533 12.2905 71.9977 12.3446 72.6421 12.6688C73.3682 13.0196 73.8307 13.6756 74.0294 14.6366C74.2153 15.5349 74.0121 16.2904 73.4199 16.903C74.123 16.9319 74.6894 17.1687 75.1191 17.6136C75.557 18.0458 75.8354 18.5492 75.9543 19.1237C76.0515 19.5937 76.0367 20.0488 75.9099 20.489C75.7935 20.9269 75.6088 21.2974 75.3555 21.6003C74.8656 22.1809 74.0775 22.5836 72.9912 22.8083L70.3903 23.3463L68.2285 12.8955ZM69.6148 13.7525L70.3376 17.2465L71.215 17.065C71.3717 17.0326 71.5221 16.996 71.6661 16.9553C71.8081 16.9042 71.9718 16.8268 72.1573 16.723C72.3511 16.6067 72.5092 16.476 72.6317 16.3308C72.7646 16.1835 72.8595 15.9841 72.9164 15.7327C72.9733 15.4813 72.9705 15.2042 72.9078 14.9012C72.8408 14.5774 72.7209 14.3136 72.548 14.1097C72.373 13.8954 72.1952 13.747 72.0148 13.6645C71.8343 13.582 71.6279 13.5321 71.3956 13.5148C71.1633 13.4975 70.9886 13.4955 70.8715 13.5088C70.7545 13.5222 70.6385 13.5407 70.5236 13.5645L69.6148 13.7525ZM70.5515 18.2806L71.3228 22.0097L72.6547 21.7342C73.5007 21.5592 74.0816 21.2865 74.3971 20.9163C74.7876 20.4869 74.918 19.9589 74.7883 19.3322C74.6436 18.6323 74.24 18.1821 73.5776 17.9814C73.1584 17.8503 72.5466 17.8679 71.7423 18.0343L70.5515 18.2806Z" fill="#B78D41"/>
    <path d="M89.2455 10.9995L88.9229 15.5641L93.7782 11.3198L95.3742 11.4326L90.0438 16.0443L94.7814 22.0894L93.1535 21.9743L89.1415 16.7825L88.8169 17.0644L88.4931 21.6449L87.3121 21.5615L88.0645 10.916L89.2455 10.9995Z" fill="#B78D41"/>
    <path d="M105.29 24.6018L104.811 21.3805L100.404 20.2748L98.4301 22.881L97.1576 22.5617L104.643 12.9091L106.562 24.921L105.29 24.6018ZM101.126 19.3014L104.633 20.1813L103.935 15.6016L101.126 19.3014Z" fill="#B78D41"/>
    <path d="M117.634 19.4044L115.25 18.3867L111.499 27.1716L110.41 26.7067L114.161 17.9218L111.777 16.9041L112.217 15.874L118.073 18.3744L117.634 19.4044Z" fill="#B78D41"/>
    <path d="M123.089 33.7558L123.633 30.545L119.786 28.1266L117.102 29.9919L115.991 29.2937L126.102 22.4394L124.2 34.454L123.089 33.7558ZM120.775 27.4253L123.837 29.3498L124.593 24.7794L120.775 27.4253Z" fill="#B78D41"/>
    <path d="M134.196 29.1616L138.983 33.5528L131.769 41.4172L130.896 40.6169L137.353 33.5778L134.311 30.7874L130.439 35.0085C130.1 35.3779 129.84 35.6533 129.659 35.8348C129.486 36.0084 129.185 36.2101 128.757 36.4399C128.344 36.6691 127.93 36.7814 127.514 36.7766C126.872 36.7666 126.28 36.5128 125.738 36.0153C125.612 35.8999 125.476 35.7321 125.331 35.5119L126.088 34.6866C126.202 34.8779 126.326 35.0349 126.459 35.1575C126.766 35.4387 127.115 35.5708 127.507 35.5539C127.778 35.5422 128.068 35.4391 128.377 35.2446C128.693 35.0423 128.938 34.8543 129.111 34.6807C129.285 34.5071 129.545 34.2317 129.891 33.8544L134.196 29.1616Z" fill="#B78D41"/>
    <path d="M140.924 51.0323C139.443 50.7924 138.243 50.0432 137.326 48.7847C136.409 47.5263 136.059 46.1508 136.278 44.6581C136.503 43.1741 137.249 41.9703 138.516 41.0466C139.792 40.1167 141.169 39.7791 142.649 40.0339C144.136 40.2824 145.336 41.0316 146.247 42.2814C147.158 43.5312 147.504 44.9024 147.286 46.3951C147.076 47.8814 146.333 49.0896 145.057 50.0195C143.79 50.9432 142.412 51.2808 140.924 51.0323ZM146.117 46.1776C146.311 44.994 146.052 43.9152 145.342 42.9411C144.632 41.9671 143.684 41.391 142.498 41.2127C141.312 41.0345 140.224 41.3066 139.232 42.0292C138.241 42.7518 137.649 43.7049 137.456 44.8885C137.262 46.0722 137.521 47.151 138.231 48.125C138.941 49.099 139.889 49.6751 141.075 49.8534C142.261 50.0317 143.349 49.7595 144.341 49.0369C145.332 48.3143 145.924 47.3612 146.117 46.1776Z" fill="#B78D41"/>
    <path d="M141.906 55.974L151.494 51.2871L153.63 55.6569L152.624 56.1488L151.008 52.8427L142.426 57.0377L141.906 55.974Z" fill="#B78D41"/>
    <path d="M157.657 69.3425L157.336 71.2957L159.268 70.8389L159.475 71.9069L157.512 72.2067L158.542 73.8974L157.616 74.4195L156.716 72.6384L155.428 74.1437L154.65 73.4145L156.058 72.0165L154.229 71.247L154.677 70.2799L156.436 71.1934L156.603 69.2049L157.657 69.3425Z" fill="#B78D41"/>
</svg>
