<svg width="238" height="238" viewBox="0 0 238 238" fill="none" xmlns="http://www.w3.org/2000/svg">
<path fill-rule="evenodd" clip-rule="evenodd" d="M177.484 177.483C209.897 145.069 209.897 92.5166 177.484 60.1031C145.07 27.6896 92.5176 27.6896 60.1041 60.1031C27.6906 92.5166 27.6906 145.069 60.1041 177.483C92.5176 209.896 145.07 209.896 177.484 177.483ZM178.191 178.19C210.995 145.386 210.995 92.2 178.191 59.396C145.387 26.592 92.201 26.592 59.397 59.396C26.5929 92.2 26.5929 145.386 59.397 178.19C92.201 210.994 145.387 210.994 178.191 178.19Z" fill="#B78D41"/>
<path d="M113.137 114.158L114.029 115.05L117.999 111.08V128.692H119.26V111.08L123.23 115.05L124.122 114.158L118.629 108.665L113.137 114.158Z" fill="#B78D41"/>
<path d="M168.697 174.692L162.665 179.7L155.848 171.489L156.759 170.732L162.861 178.082L167.071 174.587L160.97 167.237L161.881 166.481L168.697 174.692Z" fill="#B78D41"/>
<path d="M152.853 185.643L152.293 184.673L156.062 182.498L154.478 179.754L150.82 181.865L150.26 180.895L153.919 178.784L151.847 175.195L148.078 177.37L147.518 176.4L152.313 173.633L157.647 182.876L152.853 185.643Z" fill="#B78D41"/>
<path d="M147.61 187.997L145.806 188.7C144.673 189.142 143.748 189.234 143.029 188.976C142.221 188.695 141.641 188.103 141.289 187.198C140.987 186.423 140.992 185.659 141.306 184.908C141.614 184.169 142.294 183.595 143.348 183.185L144.317 182.807L142.632 178.484L143.735 178.054L147.61 187.997ZM146.1 187.384L144.724 183.851L143.814 184.205C143.158 184.461 142.708 184.819 142.465 185.28C142.211 185.746 142.194 186.261 142.415 186.828C142.864 187.981 143.82 188.273 145.281 187.703L146.1 187.384Z" fill="#B78D41"/>
<path d="M131.515 192.749L131.271 191.656L135.518 190.707L134.828 187.615L130.705 188.536L130.461 187.443L134.584 186.522L133.68 182.478L129.433 183.427L129.189 182.334L134.592 181.127L136.918 191.542L131.515 192.749Z" fill="#B78D41"/>
<path d="M117.774 183.161L118.136 191.297L125.169 182.351L125.665 193.492L124.482 193.545L124.119 185.377L117.086 194.323L116.591 183.214L117.774 183.161ZM123.95 195.987L122.848 196.405C122.775 196.205 122.672 196.039 122.537 195.906C122.393 195.784 122.24 195.7 122.078 195.654C121.905 195.619 121.776 195.593 121.69 195.575C121.604 195.569 121.524 195.567 121.449 195.57C121.375 195.573 121.295 195.582 121.21 195.597C121.126 195.622 121.005 195.659 120.847 195.709C120.679 195.77 120.534 195.867 120.412 196.001C120.279 196.145 120.186 196.32 120.131 196.526L118.995 196.208C119.033 196.089 119.091 195.963 119.171 195.832C119.24 195.701 119.36 195.53 119.532 195.319C119.705 195.109 119.953 194.932 120.278 194.789C120.602 194.647 120.978 194.566 121.404 194.547C121.83 194.528 122.211 194.575 122.547 194.688C122.883 194.802 123.146 194.955 123.337 195.15C123.527 195.344 123.667 195.503 123.758 195.627C123.839 195.752 123.903 195.872 123.95 195.987Z" fill="#B78D41"/>
<path d="M106.088 191.552L108.66 191.875L109.849 182.397L111.024 182.545L109.834 192.022L112.406 192.345L112.267 193.456L105.948 192.663L106.088 191.552Z" fill="#B78D41"/>
<path d="M96.6781 179.141L94.316 186.935L103.922 180.835L100.688 191.508L99.5545 191.164L101.926 183.34L92.3197 189.44L95.545 178.798L96.6781 179.141Z" fill="#B78D41"/>
<path d="M80.1035 182.761L78.498 181.708C77.6061 181.123 77.0466 180.488 76.8196 179.803C76.5535 179.042 76.6896 178.251 77.2278 177.43C77.7309 176.663 78.4084 176.272 79.2603 176.257C78.7831 175.74 78.5495 175.172 78.5597 174.554C78.5551 173.938 78.7136 173.385 79.0354 172.895C79.2986 172.493 79.6306 172.182 80.0313 171.96C80.4231 171.732 80.8155 171.6 81.2088 171.565C81.9656 171.5 82.8079 171.772 83.7355 172.38L85.9564 173.837L80.1035 182.761ZM79.7277 181.175L81.6845 178.191L80.9353 177.7C80.8015 177.612 80.6693 177.532 80.5385 177.459C80.402 177.395 80.2314 177.334 80.0268 177.276C79.8075 177.222 79.6032 177.203 79.414 177.219C79.2159 177.229 79.0078 177.303 78.7899 177.441C78.572 177.579 78.3783 177.777 78.2086 178.035C78.0273 178.312 77.9258 178.583 77.9041 178.85C77.8766 179.125 77.8975 179.356 77.967 179.542C78.0364 179.728 78.1473 179.909 78.2995 180.085C78.4517 180.261 78.5739 180.386 78.6662 180.459C78.7584 180.533 78.8536 180.602 78.9517 180.666L79.7277 181.175ZM82.2637 177.308L84.3521 174.124L83.2149 173.378C82.4924 172.904 81.8888 172.687 81.4039 172.726C80.8242 172.754 80.3589 173.036 80.0079 173.571C79.6159 174.169 79.5835 174.772 79.9105 175.382C80.1146 175.771 80.5601 176.191 81.2469 176.641L82.2637 177.308Z" fill="#B78D41"/>
<path d="M63.8891 169.256L67.3421 166.254L60.9073 165.828L59.8574 164.62L66.888 165.122L67.8054 157.497L68.8763 158.728L68.0481 165.237L68.477 165.267L71.942 162.254L72.719 163.147L64.666 170.15L63.8891 169.256Z" fill="#B78D41"/>
<path d="M62.1433 148.292L60.2064 150.91L62.5447 154.806L65.7825 154.356L66.4577 155.481L54.3405 157.024L61.4682 147.167L62.1433 148.292ZM61.3456 154.985L59.4848 151.884L56.744 155.619L61.3456 154.985Z" fill="#B78D41"/>
<path d="M49.7364 143.255L50.7046 145.66L59.5652 142.092L60.0074 143.19L51.1469 146.758L52.1151 149.162L51.0762 149.581L48.6974 143.674L49.7364 143.255Z" fill="#B78D41"/>
<path d="M56.0098 129.24L53.3563 131.128L54.3706 135.558L57.5884 136.134L57.8813 137.413L45.883 135.121L55.717 127.962L56.0098 129.24ZM53.1753 135.355L52.3681 131.831L48.6039 134.531L53.1753 135.355Z" fill="#B78D41"/>
<path d="M44.9043 124.646L44.6183 118.156L55.28 117.686L55.3321 118.869L45.7894 119.29L45.9711 123.414L51.6935 123.161C52.1944 123.139 52.5729 123.128 52.8291 123.127C53.0747 123.127 53.4301 123.197 53.8954 123.337C54.3495 123.466 54.7219 123.679 55.0126 123.976C55.46 124.437 55.6999 125.035 55.7323 125.77C55.7398 125.941 55.7172 126.155 55.6646 126.414L54.5457 126.463C54.6002 126.247 54.6235 126.049 54.6155 125.867C54.5972 125.452 54.4434 125.112 54.1541 124.847C53.9539 124.663 53.6758 124.531 53.3199 124.451C52.9534 124.371 52.6473 124.331 52.4017 124.331C52.1562 124.331 51.7776 124.343 51.2661 124.365L44.9043 124.646Z" fill="#B78D41"/>
<path d="M55.5939 104.413C56.4731 105.63 56.7929 107.007 56.5531 108.546C56.3134 110.085 55.5889 111.305 54.3796 112.207C53.172 113.099 51.7935 113.424 50.2442 113.182C48.6844 112.939 47.471 112.205 46.6039 110.98C45.7264 109.753 45.4066 108.375 45.6447 106.847C45.8828 105.318 46.6065 104.103 47.8158 103.201C49.0145 102.298 50.3938 101.968 51.9536 102.211C53.5029 102.452 54.7164 103.186 55.5939 104.413ZM48.489 104.181C47.5161 104.882 46.9369 105.828 46.7514 107.019C46.5658 108.21 46.8298 109.288 47.5432 110.252C48.2566 111.216 49.2194 111.792 50.4314 111.981C51.6435 112.17 52.7359 111.913 53.7088 111.212C54.6817 110.511 55.2609 109.565 55.4465 108.374C55.632 107.183 55.3681 106.105 54.6546 105.141C53.9412 104.177 52.9785 103.601 51.7664 103.412C50.5544 103.223 49.4619 103.48 48.489 104.181Z" fill="#B78D41"/>
<path d="M58.3938 100.225L48.2969 96.7688L49.8721 92.1669L50.9317 92.5296L49.74 96.0113L58.7772 99.1047L58.3938 100.225Z" fill="#B78D41"/>
<path d="M56.6875 79.6346L58.2948 78.4794L56.6045 77.4376L57.2122 76.5352L58.8132 77.7097L59.2792 75.7859L60.3029 76.0702L59.6817 77.9667L61.6572 77.8116L61.6922 78.8768L59.7086 78.8721L60.4589 80.7083L59.4588 81.0764L58.8596 79.1876L57.3359 80.4764L56.6875 79.6346Z" fill="#B78D41"/>
<path d="M69.3193 64.229L75.3562 59.2268L82.1653 67.4444L81.2536 68.1998L75.1591 60.8447L70.9456 64.336L77.0401 71.6911L76.1284 72.4465L69.3193 64.229Z" fill="#B78D41"/>
<path d="M85.1742 53.2903L85.7332 54.2608L81.9619 56.4328L83.543 59.1781L87.2034 57.0699L87.7623 58.0405L84.102 60.1486L86.1703 63.7396L89.9415 61.5676L90.5005 62.5381L85.7032 65.301L80.377 56.0532L85.1742 53.2903Z" fill="#B78D41"/>
<path d="M90.4141 50.9424L92.2186 50.2411C93.352 49.8006 94.2779 49.7096 94.9964 49.9683C95.8038 50.2496 96.3833 50.8426 96.735 51.7473C97.0363 52.5228 97.0298 53.2864 96.7154 54.038C96.4071 54.7758 95.726 55.3495 94.6721 55.7591L93.7027 56.1358L95.3836 60.4607L94.28 60.8896L90.4141 50.9424ZM91.9234 51.5574L93.297 55.0919L94.2067 54.7383C94.8629 54.4833 95.3131 54.1252 95.5573 53.6641C95.8115 53.1991 95.8284 52.6833 95.6082 52.1166C95.16 50.9633 94.2051 50.6706 92.7436 51.2386L91.9234 51.5574Z" fill="#B78D41"/>
<path d="M106.518 46.209L106.761 47.3023L102.513 48.2469L103.201 51.3394L107.324 50.4225L107.567 51.5158L103.444 52.4327L104.343 56.4779L108.592 55.5332L108.835 56.6265L103.431 57.8282L101.114 47.4106L106.518 46.209Z" fill="#B78D41"/>
<path d="M120.251 55.8063L119.896 47.6701L112.855 56.6093L112.369 45.4679L113.552 45.4163L113.908 53.5845L120.95 44.6453L121.434 55.7548L120.251 55.8063ZM114.086 42.9747L115.189 42.5583C115.262 42.758 115.365 42.9243 115.499 43.0572C115.643 43.1791 115.797 43.2632 115.959 43.3095C116.131 43.3447 116.26 43.3711 116.347 43.3887C116.432 43.3956 116.512 43.3974 116.587 43.3942C116.662 43.3909 116.741 43.3821 116.826 43.3677C116.91 43.3427 117.032 43.3054 117.19 43.2558C117.358 43.1951 117.503 43.098 117.625 42.9645C117.758 42.82 117.852 42.6451 117.907 42.4398L119.042 42.7586C119.004 42.8777 118.946 43.0031 118.866 43.1347C118.797 43.2658 118.676 43.4365 118.504 43.6469C118.331 43.8573 118.083 44.0336 117.758 44.1759C117.433 44.3182 117.058 44.3986 116.632 44.4172C116.205 44.4358 115.824 44.3884 115.488 44.2749C115.152 44.1614 114.889 44.0074 114.699 43.8128C114.509 43.6182 114.369 43.4589 114.278 43.3347C114.198 43.2101 114.134 43.0901 114.086 42.9747Z" fill="#B78D41"/>
<path d="M131.942 47.4261L129.37 47.1008L128.172 56.5773L126.997 56.4288L128.196 46.9523L125.624 46.627L125.765 45.5159L132.082 46.315L131.942 47.4261Z" fill="#B78D41"/>
<path d="M141.341 59.846L143.711 52.0543L134.099 58.1453L137.343 47.4757L138.476 47.8202L136.097 55.6425L145.709 49.5515L142.474 60.1905L141.341 59.846Z" fill="#B78D41"/>
<path d="M157.92 56.2405L159.524 57.295C160.416 57.8808 160.975 58.5162 161.201 59.201C161.466 59.9626 161.33 60.7534 160.791 61.5735C160.287 62.3401 159.609 62.7306 158.757 62.7451C159.234 63.2626 159.467 63.8306 159.456 64.449C159.46 65.0643 159.301 65.6171 158.979 66.1074C158.715 66.5085 158.383 66.8199 157.982 67.0414C157.59 67.2688 157.198 67.4001 156.804 67.4353C156.047 67.4994 155.205 67.2268 154.278 66.6176L152.059 65.1589L157.92 56.2405ZM158.294 57.8267L156.335 60.8084L157.083 61.3005C157.217 61.3884 157.349 61.4689 157.48 61.542C157.616 61.6062 157.787 61.6672 157.992 61.725C158.211 61.7798 158.415 61.7991 158.604 61.7831C158.802 61.7729 159.011 61.6991 159.229 61.5615C159.447 61.424 159.641 61.226 159.81 60.9675C159.992 60.6912 160.094 60.4198 160.116 60.1534C160.143 59.8781 160.123 59.6475 160.053 59.4615C159.984 59.2756 159.874 59.0944 159.721 58.9179C159.569 58.7414 159.447 58.6164 159.355 58.5431C159.263 58.4697 159.168 58.4008 159.07 58.3364L158.294 57.8267ZM155.755 61.6909L153.663 64.8732L154.8 65.6201C155.522 66.0946 156.125 66.3125 156.61 66.2739C157.19 66.2464 157.656 65.9652 158.007 65.4304C158.4 64.8331 158.433 64.2294 158.106 63.6191C157.902 63.23 157.457 62.8098 156.771 62.3587L155.755 61.6909Z" fill="#B78D41"/>
<path d="M174.122 69.7616L170.666 72.7611L177.1 73.1932L178.149 74.4015L171.119 73.8933L170.195 81.5178L169.125 80.2853L169.959 73.7773L169.53 73.747L166.062 76.757L165.286 75.8629L173.346 68.8674L174.122 69.7616Z" fill="#B78D41"/>
<path d="M175.849 90.7242L177.788 88.108L175.453 84.2097L172.215 84.6571L171.541 83.5315L183.66 81.9992L176.523 91.8498L175.849 90.7242ZM176.652 84.0323L178.51 87.1345L181.255 83.4022L176.652 84.0323Z" fill="#B78D41"/>
<path d="M188.252 95.7778L187.286 93.3726L178.422 96.9324L177.981 95.8337L186.845 92.2738L185.879 89.8686L186.918 89.4512L189.291 95.3604L188.252 95.7778Z" fill="#B78D41"/>
<path d="M181.963 109.784L184.618 107.898L183.608 103.468L180.39 102.889L180.099 101.61L192.095 103.912L182.254 111.063L181.963 109.784ZM184.803 103.671L185.607 107.197L189.373 104.5L184.803 103.671Z" fill="#B78D41"/>
<path d="M193.063 114.388L193.343 120.878L182.681 121.338L182.63 120.155L192.173 119.744L191.995 115.619L186.273 115.866C185.772 115.888 185.393 115.899 185.137 115.899C184.892 115.899 184.536 115.829 184.071 115.689C183.617 115.559 183.245 115.346 182.954 115.049C182.507 114.587 182.268 113.989 182.236 113.254C182.229 113.083 182.252 112.869 182.305 112.61L183.424 112.562C183.369 112.778 183.345 112.976 183.353 113.158C183.371 113.573 183.525 113.914 183.814 114.179C184.014 114.362 184.292 114.494 184.648 114.575C185.014 114.655 185.32 114.696 185.566 114.696C185.811 114.696 186.19 114.685 186.701 114.663L193.063 114.388Z" fill="#B78D41"/>
<path d="M182.358 134.612C181.48 133.394 181.161 132.017 181.402 130.478C181.644 128.939 182.369 127.72 183.579 126.819C184.788 125.929 186.166 125.605 187.716 125.848C189.275 126.092 190.488 126.828 191.354 128.054C192.23 129.282 192.549 130.66 192.309 132.188C192.07 133.716 191.345 134.93 190.135 135.831C188.935 136.733 187.556 137.062 185.996 136.818C184.447 136.575 183.234 135.84 182.358 134.612ZM189.462 134.851C190.436 134.151 191.016 133.205 191.203 132.014C191.389 130.823 191.126 129.746 190.414 128.781C189.701 127.816 188.739 127.239 187.527 127.049C186.315 126.859 185.223 127.114 184.249 127.815C183.276 128.515 182.695 129.461 182.509 130.651C182.322 131.842 182.585 132.92 183.298 133.885C184.01 134.849 184.972 135.427 186.184 135.617C187.396 135.806 188.489 135.551 189.462 134.851Z" fill="#B78D41"/>
<path d="M179.558 138.8L189.651 142.265L188.072 146.866L187.013 146.502L188.208 143.021L179.173 139.92L179.558 138.8Z" fill="#B78D41"/>
<path d="M181.242 159.391L179.633 160.545L181.323 161.588L180.714 162.49L179.114 161.314L178.646 163.237L177.623 162.952L178.246 161.056L176.27 161.209L176.236 160.144L178.22 160.151L177.471 158.314L178.472 157.946L179.069 159.836L180.594 158.548L181.242 159.391Z" fill="#B78D41"/>
</svg>
