<svg width="25" height="26" viewBox="0 0 25 26" fill="none" xmlns="http://www.w3.org/2000/svg">
<g clip-path="url(#clip0_241_3)">
<path d="M17.6212 17.6C17.7681 17.7555 17.9151 17.915 18.0651 18.0715C20.232 20.3272 22.3987 22.5833 24.5649 24.8397C24.8305 25.1151 25.2248 25.4219 24.8376 25.8172C24.4048 26.2592 24.1149 25.7949 23.8463 25.5124C21.7125 23.2952 19.5824 21.0744 17.456 18.8498C17.2695 18.6557 17.084 18.4596 16.8691 18.234C14.1194 20.3679 11.0575 21.1188 7.68441 20.251C5.20529 19.618 3.23395 18.1883 1.78459 16.0677C-1.15468 11.7757 -0.39959 6.06826 3.55221 2.50683C7.21514 -0.794485 13.0237 -0.812775 16.859 2.31987C20.4358 5.24014 22.7031 12.2116 17.6212 17.6ZM10.3125 0.973531C7.84566 0.969755 5.4783 1.94836 3.73102 3.69415C1.98374 5.43993 0.999608 7.80996 0.995042 10.2831C0.995042 15.4032 5.13536 19.5692 10.2578 19.5966C11.4775 19.6002 12.686 19.363 13.8143 18.8983C14.9425 18.4337 15.9685 17.7509 16.8335 16.8887C17.6985 16.0266 18.3857 15.0022 18.8558 13.8738C19.3259 12.7455 19.5697 11.5353 19.5732 10.3125C19.5768 9.08971 19.3402 7.87816 18.8767 6.74705C18.4133 5.61594 17.7321 4.58743 16.8722 3.72022C16.0122 2.85302 14.9903 2.16411 13.8648 1.69283C12.7393 1.22155 11.5323 0.977134 10.3125 0.973531V0.973531Z" fill="black"/>
</g>
<defs>
<clipPath id="clip0_241_3">
<rect width="25" height="26" fill="white"/>
</clipPath>
</defs>
</svg>
