<svg width="293" height="64" viewBox="0 0 293 64" fill="none" xmlns="http://www.w3.org/2000/svg">
<path d="M7.71 26.34C9.63 26.34 11.2 26.79 12.42 27.69C13.64 28.59 14.25 29.86 14.25 31.5C14.25 32.48 14.01 33.44 13.53 34.38C13.05 35.3 12.43 36.2 11.67 37.08C10.91 37.94 9.84 39.06 8.46 40.44C8.14 40.78 7.58 41.36 6.78 42.18C5.98 43 5.25 43.79 4.59 44.55H11.91C12.47 44.55 12.92 44.4 13.26 44.1C13.62 43.78 13.85 43.24 13.95 42.48H14.64C14.58 42.92 14.55 43.49 14.55 44.19C14.55 45.39 14.62 46.66 14.76 48H6.51L2.46 47.97C1.76 47.97 1.24 47.98 0.9 48V47.4C3.4 45.2 5.49 42.77 7.17 40.11C8.87 37.43 9.72 34.69 9.72 31.89C9.72 30.15 9.4 28.91 8.76 28.17C8.12 27.41 7.31 27.03 6.33 27.03C5.81 27.03 5.31 27.14 4.83 27.36C4.37 27.56 4.04 27.84 3.84 28.2C4.44 28.34 4.91 28.62 5.25 29.04C5.59 29.46 5.76 29.94 5.76 30.48C5.76 31.14 5.53 31.67 5.07 32.07C4.63 32.47 4.09 32.67 3.45 32.67C2.77 32.67 2.23 32.46 1.83 32.04C1.45 31.6 1.26 31.08 1.26 30.48C1.26 29.56 1.78 28.69 2.82 27.87C3.4 27.37 4.11 26.99 4.95 26.73C5.79 26.47 6.71 26.34 7.71 26.34ZM24.3619 26.34C26.2419 26.34 27.7519 26.73 28.8919 27.51C30.0319 28.29 30.6019 29.36 30.6019 30.72C30.6019 32.1 29.9819 33.3 28.7419 34.32C27.5219 35.32 25.9619 36.03 24.0619 36.45C26.2619 36.53 28.0919 37.07 29.5519 38.07C31.0119 39.07 31.7419 40.44 31.7419 42.18C31.7419 43.46 31.3419 44.57 30.5419 45.51C29.7419 46.45 28.6719 47.17 27.3319 47.67C25.9919 48.17 24.5519 48.42 23.0119 48.42C21.2919 48.42 19.8619 48.09 18.7219 47.43C18.2219 47.13 17.8419 46.78 17.5819 46.38C17.3419 45.98 17.2219 45.56 17.2219 45.12C17.2219 44.5 17.4319 44 17.8519 43.62C18.2719 43.22 18.8319 43.02 19.5319 43.02C20.2119 43.02 20.7719 43.21 21.2119 43.59C21.6719 43.97 21.9019 44.48 21.9019 45.12C21.9019 45.66 21.7319 46.12 21.3919 46.5C21.0519 46.86 20.6219 47.11 20.1019 47.25C20.2819 47.39 20.5819 47.52 21.0019 47.64C21.4419 47.76 21.9219 47.82 22.4419 47.82C23.9819 47.82 25.1719 47.29 26.0119 46.23C26.8519 45.17 27.2719 43.8 27.2719 42.12C27.2719 40.58 26.9319 39.33 26.2519 38.37C25.5719 37.41 24.6519 36.88 23.4919 36.78C23.4319 36.82 23.3119 36.89 23.1319 36.99C22.9519 37.09 22.7819 37.17 22.6219 37.23C22.4819 37.27 22.3419 37.29 22.2019 37.29C22.0219 37.29 21.8719 37.25 21.7519 37.17C21.6519 37.09 21.6019 36.98 21.6019 36.84C21.6019 36.48 21.8919 36.3 22.4719 36.3C22.6519 36.3 22.8019 36.31 22.9219 36.33C23.0419 36.35 23.1519 36.37 23.2519 36.39C25.1319 35.51 26.0719 33.82 26.0719 31.32C26.0719 29.94 25.8019 28.87 25.2619 28.11C24.7219 27.35 23.9719 26.97 23.0119 26.97C22.4919 26.97 22.0019 27.06 21.5419 27.24C21.1019 27.42 20.7619 27.68 20.5219 28.02C21.1219 28.2 21.5919 28.5 21.9319 28.92C22.2719 29.32 22.4419 29.78 22.4419 30.3C22.4419 30.96 22.2119 31.49 21.7519 31.89C21.3119 32.29 20.7619 32.49 20.1019 32.49C19.4419 32.49 18.9119 32.28 18.5119 31.86C18.1319 31.42 17.9419 30.89 17.9419 30.27C17.9419 29.77 18.0719 29.3 18.3319 28.86C18.6119 28.4 18.9919 28.01 19.4719 27.69C20.0319 27.25 20.7319 26.92 21.5719 26.7C22.4319 26.46 23.3619 26.34 24.3619 26.34Z" fill="#B78D41"/>
<path d="M115.23 25.26C115.17 25.76 115.14 26.45 115.14 27.33C115.14 28.21 115.21 29.17 115.35 30.21H105.36L104.91 36.45C106.17 35.45 107.8 34.95 109.8 34.95C111.16 34.95 112.36 35.21 113.4 35.73C114.46 36.23 115.29 36.96 115.89 37.92C116.49 38.88 116.79 40.02 116.79 41.34C116.79 42.78 116.43 44.04 115.71 45.12C115.01 46.18 114.05 47 112.83 47.58C111.61 48.14 110.24 48.42 108.72 48.42C107.04 48.42 105.69 48.07 104.67 47.37C104.15 47.03 103.75 46.64 103.47 46.2C103.19 45.74 103.05 45.26 103.05 44.76C103.05 44.1 103.26 43.56 103.68 43.14C104.12 42.7 104.69 42.48 105.39 42.48C106.03 42.48 106.55 42.67 106.95 43.05C107.35 43.41 107.55 43.93 107.55 44.61C107.55 45.21 107.38 45.72 107.04 46.14C106.7 46.56 106.23 46.88 105.63 47.1C105.87 47.32 106.21 47.5 106.65 47.64C107.11 47.78 107.6 47.85 108.12 47.85C109.4 47.85 110.41 47.39 111.15 46.47C111.89 45.55 112.26 43.91 112.26 41.55C112.26 39.73 111.91 38.31 111.21 37.29C110.53 36.25 109.61 35.73 108.45 35.73C107.09 35.73 105.88 36.2 104.82 37.14L104.28 37.02L105.12 26.64C105.52 26.72 105.97 26.76 106.47 26.76H112.41C113.11 26.76 113.63 26.65 113.97 26.43C114.31 26.21 114.53 25.82 114.63 25.26H115.23ZM127.689 26.34C129.349 26.34 130.799 26.77 132.039 27.63C133.299 28.49 134.269 29.74 134.949 31.38C135.649 33 135.999 34.94 135.999 37.2C135.999 39.4 135.639 41.35 134.919 43.05C134.219 44.75 133.229 46.07 131.949 47.01C130.689 47.95 129.259 48.42 127.659 48.42C125.999 48.42 124.539 47.99 123.279 47.13C122.039 46.27 121.069 45.03 120.369 43.41C119.689 41.77 119.349 39.82 119.349 37.56C119.349 35.36 119.699 33.41 120.399 31.71C121.119 30.01 122.109 28.69 123.369 27.75C124.649 26.81 126.089 26.34 127.689 26.34ZM127.569 26.88C126.369 26.88 125.469 27.78 124.869 29.58C124.269 31.38 123.969 34 123.969 37.44C123.969 40.88 124.299 43.48 124.959 45.24C125.639 47 126.579 47.88 127.779 47.88C128.979 47.88 129.879 46.98 130.479 45.18C131.079 43.38 131.379 40.76 131.379 37.32C131.379 33.9 131.039 31.31 130.359 29.55C129.699 27.77 128.769 26.88 127.569 26.88Z" fill="#B78D41"/>
<path d="M236.24 27.39C234.68 29.67 233.47 31.6 232.61 33.18C231.75 34.76 231.08 36.42 230.6 38.16C230.12 39.9 229.89 41.84 229.91 43.98C229.91 44.32 229.93 44.75 229.97 45.27C230.01 45.75 230.03 46.1 230.03 46.32C230.03 46.94 229.84 47.45 229.46 47.85C229.1 48.23 228.55 48.42 227.81 48.42C227.09 48.42 226.55 48.21 226.19 47.79C225.83 47.37 225.65 46.84 225.65 46.2C225.65 44.52 226.04 42.77 226.82 40.95C227.6 39.11 228.54 37.37 229.64 35.73C230.76 34.09 232.12 32.25 233.72 30.21H225.11C224.29 30.21 223.68 30.39 223.28 30.75C222.9 31.09 222.66 31.69 222.56 32.55H221.87C221.93 31.91 221.96 31.1 221.96 30.12C221.96 29.14 221.89 28.02 221.75 26.76C223.19 26.82 225.63 26.85 229.07 26.85C231.91 26.85 234.3 26.82 236.24 26.76V27.39Z" fill="#B78D41"/>
<path d="M86.12 52.672H84.536L97.592 17.344H99.176L86.12 52.672Z" fill="#B78D41"/>
<path d="M202.12 52.672H200.536L213.592 17.344H215.176L202.12 52.672Z" fill="#B78D41"/>
<path d="M44.74 31.22C44.6067 31.22 44.46 31.3067 44.3 31.48C44.1467 31.6467 43.99 31.8767 43.83 32.17C43.6767 32.4633 43.53 32.7967 43.39 33.17C43.25 33.5433 43.1333 33.9333 43.04 34.34L43.22 33.32C43.54 32.38 43.8633 31.7067 44.19 31.3C44.5233 30.8933 44.89 30.69 45.29 30.69C45.6967 30.69 46.0033 30.8233 46.21 31.09C46.4233 31.35 46.53 31.73 46.53 32.23C46.53 32.5367 46.4867 32.87 46.4 33.23C46.32 33.5833 46.1967 33.9333 46.03 34.28C45.8633 34.62 45.6567 34.93 45.41 35.21C45.17 35.49 44.8933 35.7167 44.58 35.89C44.2667 36.0567 43.92 36.14 43.54 36.14C43.3267 36.14 43.13 36.1 42.95 36.02C42.7767 35.94 42.65 35.8333 42.57 35.7L42.64 35.54C42.7067 35.6533 42.78 35.7333 42.86 35.78C42.9467 35.8267 43.0433 35.85 43.15 35.85C43.35 35.85 43.5433 35.77 43.73 35.61C43.9167 35.45 44.09 35.2367 44.25 34.97C44.4167 34.7033 44.56 34.4067 44.68 34.08C44.8067 33.7467 44.9033 33.4067 44.97 33.06C45.0367 32.7067 45.07 32.37 45.07 32.05C45.07 31.7233 45.04 31.5033 44.98 31.39C44.92 31.2767 44.84 31.22 44.74 31.22ZM43.04 29.42C43.32 29.4 43.58 29.3667 43.82 29.32C44.0667 29.2733 44.3033 29.2133 44.53 29.14L42.37 36.75C42.2767 37.0967 42.3 37.3233 42.44 37.43C42.58 37.5367 42.8133 37.5933 43.14 37.6L43.08 37.81C42.9267 37.8033 42.7067 37.7933 42.42 37.78C42.1333 37.7733 41.8267 37.77 41.5 37.77C41.2333 37.77 40.9667 37.7733 40.7 37.78C40.4333 37.7933 40.23 37.8033 40.09 37.81L40.15 37.6C40.39 37.6 40.5633 37.5533 40.67 37.46C40.7767 37.3733 40.8633 37.2133 40.93 36.98L43.04 29.42ZM41.11 32.5C41.35 32.24 41.5767 31.9833 41.79 31.73C42.0033 31.47 42.21 31.1633 42.41 30.81C42.61 30.4567 42.8167 30.0133 43.03 29.48L43.06 29.64C42.84 30.3333 42.5733 30.9033 42.26 31.35C41.9533 31.7967 41.6067 32.2233 41.22 32.63L41.11 32.5ZM50.1401 30.89C49.9867 30.89 49.8234 30.9833 49.6501 31.17C49.4834 31.35 49.3167 31.5933 49.1501 31.9C48.9901 32.2067 48.8434 32.55 48.7101 32.93C48.5834 33.31 48.4801 33.7033 48.4001 34.11C48.3267 34.51 48.2901 34.8933 48.2901 35.26C48.2901 35.5 48.3167 35.6733 48.3701 35.78C48.4301 35.8867 48.5167 35.94 48.6301 35.94C48.7834 35.94 48.9434 35.8533 49.1101 35.68C49.2767 35.5 49.4401 35.26 49.6001 34.96C49.7601 34.66 49.9034 34.3233 50.0301 33.95C50.1634 33.57 50.2701 33.1767 50.3501 32.77C50.4301 32.3633 50.4701 31.97 50.4701 31.59C50.4701 31.31 50.4401 31.1233 50.3801 31.03C50.3267 30.9367 50.2467 30.89 50.1401 30.89ZM46.9501 34.49C46.9501 34.11 47.0167 33.7 47.1501 33.26C47.2834 32.82 47.4834 32.4067 47.7501 32.02C48.0234 31.6267 48.3601 31.3067 48.7601 31.06C49.1667 30.8133 49.6434 30.69 50.1901 30.69C50.7034 30.69 51.1001 30.83 51.3801 31.11C51.6667 31.39 51.8101 31.8 51.8101 32.34C51.8101 32.72 51.7434 33.13 51.6101 33.57C51.4767 34.01 51.2734 34.4267 51.0001 34.82C50.7334 35.2067 50.3967 35.5233 49.9901 35.77C49.5901 36.0167 49.1167 36.14 48.5701 36.14C48.0567 36.14 47.6567 36 47.3701 35.72C47.0901 35.44 46.9501 35.03 46.9501 34.49ZM56.353 35.23C56.3264 35.39 56.323 35.5 56.343 35.56C56.3697 35.62 56.423 35.65 56.503 35.65C56.5964 35.65 56.693 35.6 56.793 35.5C56.893 35.3933 57.003 35.18 57.123 34.86L57.293 34.38H57.483L57.233 35.11C57.1464 35.3767 57.023 35.5867 56.863 35.74C56.7097 35.8867 56.5397 35.99 56.353 36.05C56.173 36.11 55.9964 36.14 55.823 36.14C55.4964 36.14 55.2564 36.0467 55.103 35.86C54.9497 35.6667 54.9164 35.3767 55.003 34.99L55.133 34.4C55.213 34.0467 55.193 33.79 55.073 33.63C54.953 33.47 54.6764 33.37 54.243 33.33V33.29C54.5497 33.27 54.8464 33.27 55.133 33.29C55.4197 33.31 55.673 33.37 55.893 33.47C56.113 33.5633 56.2764 33.71 56.383 33.91C56.4964 34.1033 56.523 34.3567 56.463 34.67L56.353 35.23ZM56.823 30.89C56.7297 30.89 56.6497 30.9033 56.583 30.93C56.5164 30.9567 56.453 30.9933 56.393 31.04C56.273 31.1467 56.173 31.2933 56.093 31.48C56.0197 31.6667 55.943 31.8667 55.863 32.08C55.7897 32.2867 55.6964 32.4867 55.583 32.68C55.4697 32.8733 55.3164 33.03 55.123 33.15C54.9297 33.27 54.6764 33.3267 54.363 33.32L54.263 33.33L54.283 33.22C54.5897 33.2 54.833 33.1267 55.013 33C55.1997 32.8733 55.343 32.7167 55.443 32.53C55.5497 32.3433 55.6364 32.15 55.703 31.95C55.7697 31.7433 55.843 31.55 55.923 31.37C56.003 31.1833 56.1097 31.0333 56.243 30.92C56.3497 30.8333 56.4597 30.7733 56.573 30.74C56.6864 30.7067 56.7864 30.69 56.873 30.69C57.193 30.69 57.4264 30.7833 57.573 30.97C57.7264 31.15 57.7997 31.3633 57.793 31.61C57.793 31.8567 57.7164 32.0633 57.563 32.23C57.4097 32.39 57.2064 32.47 56.953 32.47C56.7397 32.47 56.5797 32.4133 56.473 32.3C56.3664 32.18 56.313 32.0433 56.313 31.89C56.3197 31.6833 56.3897 31.5 56.523 31.34C56.6564 31.18 56.8064 31.0567 56.973 30.97C56.9597 30.9433 56.9364 30.9233 56.903 30.91C56.8764 30.8967 56.8497 30.89 56.823 30.89ZM53.643 36H52.233L53.503 31.68C53.5297 31.5867 53.5497 31.5033 53.563 31.43C53.5764 31.3567 53.5697 31.2967 53.543 31.25C53.523 31.2033 53.4764 31.18 53.403 31.18C53.283 31.18 53.1697 31.24 53.063 31.36C52.963 31.4733 52.8564 31.6767 52.743 31.97L52.553 32.48H52.363L52.633 31.72C52.773 31.34 52.9564 31.0733 53.183 30.92C53.4097 30.7667 53.6697 30.69 53.963 30.69C54.2764 30.69 54.493 30.7633 54.613 30.91C54.733 31.0567 54.793 31.24 54.793 31.46C54.793 31.6733 54.763 31.8833 54.703 32.09L53.643 36ZM61.9905 32.49C61.7439 33.2233 61.5072 33.83 61.2805 34.31C61.0539 34.7833 60.8305 35.1533 60.6105 35.42C60.3972 35.68 60.1772 35.8667 59.9505 35.98C59.7239 36.0867 59.4839 36.14 59.2305 36.14C58.8105 36.14 58.5372 36.0067 58.4105 35.74C58.2839 35.4733 58.3005 35.1033 58.4605 34.63L59.4305 31.68C59.4972 31.4867 59.5105 31.3567 59.4705 31.29C59.4372 31.2167 59.3805 31.18 59.3005 31.18C59.2139 31.18 59.1172 31.23 59.0105 31.33C58.9039 31.4233 58.7905 31.6367 58.6705 31.97L58.4905 32.45H58.3005L58.5505 31.72C58.6972 31.3 58.8972 31.0233 59.1505 30.89C59.4039 30.7567 59.6505 30.69 59.8905 30.69C60.1905 30.69 60.4139 30.7567 60.5605 30.89C60.7072 31.0167 60.7872 31.2 60.8005 31.44C60.8139 31.6733 60.7672 31.9533 60.6605 32.28L59.7605 34.98C59.6139 35.42 59.6472 35.64 59.8605 35.64C60.0205 35.64 60.2039 35.5133 60.4105 35.26C60.6172 35 60.8305 34.6533 61.0505 34.22C61.2772 33.78 61.4939 33.2833 61.7005 32.73C61.9072 32.1767 62.0872 31.6033 62.2405 31.01L61.9905 32.49ZM62.4805 35.15C62.4339 35.3167 62.4139 35.4433 62.4205 35.53C62.4272 35.61 62.4839 35.65 62.5905 35.65C62.7105 35.65 62.8205 35.5933 62.9205 35.48C63.0272 35.36 63.1305 35.1533 63.2305 34.86L63.4205 34.35H63.6105L63.3405 35.11C63.2072 35.5033 63.0172 35.7733 62.7705 35.92C62.5239 36.0667 62.2672 36.14 62.0005 36.14C61.8205 36.14 61.6672 36.11 61.5405 36.05C61.4205 35.99 61.3272 35.9067 61.2605 35.8C61.1939 35.6733 61.1639 35.5233 61.1705 35.35C61.1839 35.17 61.2172 34.9667 61.2705 34.74L62.2805 30.83C62.5539 30.8233 62.8105 30.81 63.0505 30.79C63.2972 30.77 63.5239 30.7367 63.7305 30.69L62.4805 35.15ZM44.52 43.79C44.52 43.1967 44.4467 42.6833 44.3 42.25C44.1533 41.8167 43.9433 41.4467 43.67 41.14C43.3967 40.8267 43.0667 40.5633 42.68 40.35L42.8 40.18C43.42 40.38 43.97 40.6667 44.45 41.04C44.93 41.4067 45.3033 41.85 45.57 42.37C45.8433 42.8833 45.98 43.46 45.98 44.1C45.98 44.5533 45.91 45.02 45.77 45.5C45.63 45.9733 45.4233 46.41 45.15 46.81C44.8767 47.21 44.5367 47.5333 44.13 47.78C43.73 48.02 43.2667 48.14 42.74 48.14C42.4333 48.14 42.1567 48.0867 41.91 47.98C41.6633 47.8667 41.47 47.69 41.33 47.45C41.19 47.2033 41.12 46.8833 41.12 46.49C41.12 46.11 41.1833 45.7033 41.31 45.27C41.4433 44.8367 41.6367 44.4267 41.89 44.04C42.15 43.6467 42.46 43.33 42.82 43.09C43.1867 42.8433 43.6033 42.72 44.07 42.72C44.2633 42.72 44.4133 42.75 44.52 42.81C44.6333 42.87 44.74 42.9533 44.84 43.06L44.77 43.18C44.71 43.0933 44.6233 43.03 44.51 42.99C44.3967 42.9433 44.28 42.92 44.16 42.92C43.9667 42.92 43.7867 43.0133 43.62 43.2C43.46 43.38 43.3167 43.6233 43.19 43.93C43.0633 44.2367 42.9533 44.58 42.86 44.96C42.7667 45.3333 42.6967 45.7167 42.65 46.11C42.6033 46.5033 42.58 46.8767 42.58 47.23C42.58 47.51 42.6067 47.7 42.66 47.8C42.7133 47.8933 42.8 47.94 42.92 47.94C43.14 47.94 43.3467 47.81 43.54 47.55C43.7333 47.2833 43.9 46.9433 44.04 46.53C44.1867 46.11 44.3033 45.66 44.39 45.18C44.4767 44.6933 44.52 44.23 44.52 43.79ZM49.5932 42.89C49.4399 42.89 49.2765 42.9833 49.1032 43.17C48.9365 43.35 48.7699 43.5933 48.6032 43.9C48.4432 44.2067 48.2965 44.55 48.1632 44.93C48.0365 45.31 47.9332 45.7033 47.8532 46.11C47.7799 46.51 47.7432 46.8933 47.7432 47.26C47.7432 47.5 47.7699 47.6733 47.8232 47.78C47.8832 47.8867 47.9699 47.94 48.0832 47.94C48.2365 47.94 48.3965 47.8533 48.5632 47.68C48.7299 47.5 48.8932 47.26 49.0532 46.96C49.2132 46.66 49.3565 46.3233 49.4832 45.95C49.6165 45.57 49.7232 45.1767 49.8032 44.77C49.8832 44.3633 49.9232 43.97 49.9232 43.59C49.9232 43.31 49.8932 43.1233 49.8332 43.03C49.7799 42.9367 49.6999 42.89 49.5932 42.89ZM46.4032 46.49C46.4032 46.11 46.4699 45.7 46.6032 45.26C46.7365 44.82 46.9365 44.4067 47.2032 44.02C47.4765 43.6267 47.8132 43.3067 48.2132 43.06C48.6199 42.8133 49.0965 42.69 49.6432 42.69C50.1565 42.69 50.5532 42.83 50.8332 43.11C51.1199 43.39 51.2632 43.8 51.2632 44.34C51.2632 44.72 51.1965 45.13 51.0632 45.57C50.9299 46.01 50.7265 46.4267 50.4532 46.82C50.1865 47.2067 49.8499 47.5233 49.4432 47.77C49.0432 48.0167 48.5699 48.14 48.0232 48.14C47.5099 48.14 47.1099 48 46.8232 47.72C46.5432 47.44 46.4032 47.03 46.4032 46.49ZM55.1562 42.89C54.9095 42.89 54.6662 42.9967 54.4262 43.21C54.1862 43.4167 53.9695 43.6967 53.7762 44.05C53.5895 44.4033 53.4395 44.8 53.3262 45.24C53.2128 45.68 53.1562 46.1333 53.1562 46.6C53.1562 46.9533 53.2262 47.21 53.3662 47.37C53.5062 47.5233 53.6895 47.6 53.9162 47.6C54.1295 47.6 54.3462 47.5367 54.5662 47.41C54.7862 47.2833 55.0095 47.0533 55.2362 46.72L55.4362 46.8C55.3028 47.02 55.1295 47.2333 54.9162 47.44C54.7095 47.6467 54.4662 47.8167 54.1862 47.95C53.9128 48.0767 53.6028 48.14 53.2562 48.14C52.7895 48.14 52.4062 48.0167 52.1062 47.77C51.8062 47.5167 51.6562 47.1267 51.6562 46.6C51.6562 46.1867 51.7362 45.7533 51.8962 45.3C52.0562 44.8467 52.2828 44.4233 52.5762 44.03C52.8762 43.63 53.2362 43.3067 53.6562 43.06C54.0762 42.8133 54.5462 42.69 55.0662 42.69C55.4328 42.69 55.7262 42.7833 55.9462 42.97C56.1728 43.15 56.2862 43.3767 56.2862 43.65C56.2862 43.83 56.2428 44.0067 56.1562 44.18C56.0695 44.3467 55.9495 44.4867 55.7962 44.6C55.6495 44.7067 55.4828 44.76 55.2962 44.76C55.1362 44.76 54.9995 44.71 54.8862 44.61C54.7795 44.5033 54.7262 44.36 54.7262 44.18C54.7262 43.9067 54.8162 43.6733 54.9962 43.48C55.1828 43.28 55.3962 43.15 55.6362 43.09C55.5828 43.0233 55.5162 42.9733 55.4362 42.94C55.3628 42.9067 55.2695 42.89 55.1562 42.89ZM58.3951 47.92C58.5551 47.92 58.6951 47.8467 58.8151 47.7C58.9351 47.5467 59.0284 47.36 59.0951 47.14C59.1684 46.9133 59.2051 46.6867 59.2051 46.46C59.2051 46.1933 59.1551 45.9867 59.0551 45.84C58.9551 45.6867 58.8251 45.6067 58.6651 45.6L58.6051 45.54C58.9184 45.5 59.2217 45.5033 59.5151 45.55C59.8084 45.59 60.0484 45.6833 60.2351 45.83C60.4284 45.97 60.5251 46.17 60.5251 46.43C60.5251 46.6967 60.4151 46.9633 60.1951 47.23C59.9817 47.49 59.6817 47.7067 59.2951 47.88C58.9151 48.0533 58.4817 48.14 57.9951 48.14C57.6284 48.14 57.3151 48.08 57.0551 47.96C56.8017 47.84 56.6051 47.66 56.4651 47.42C56.3317 47.1733 56.2651 46.8733 56.2651 46.52C56.2651 46.0933 56.3551 45.6567 56.5351 45.21C56.7217 44.7633 56.9784 44.35 57.3051 43.97C57.6317 43.59 58.0151 43.2833 58.4551 43.05C58.8951 42.81 59.3651 42.69 59.8651 42.69C60.2184 42.69 60.5084 42.76 60.7351 42.9C60.9684 43.0333 61.0851 43.26 61.0851 43.58C61.0851 43.8733 60.9817 44.15 60.7751 44.41C60.5684 44.6633 60.2951 44.89 59.9551 45.09C59.6151 45.2833 59.2384 45.4433 58.8251 45.57C58.4184 45.69 58.0117 45.7667 57.6051 45.8L57.6351 45.68C58.0284 45.6 58.4017 45.4533 58.7551 45.24C59.1151 45.0267 59.4084 44.7567 59.6351 44.43C59.8684 44.0967 59.9851 43.7267 59.9851 43.32C59.9851 43.1667 59.9584 43.0567 59.9051 42.99C59.8517 42.9167 59.7751 42.88 59.6751 42.88C59.4951 42.88 59.2951 42.98 59.0751 43.18C58.8551 43.38 58.6451 43.6533 58.4451 44C58.2451 44.3467 58.0817 44.7433 57.9551 45.19C57.8284 45.63 57.7651 46.09 57.7651 46.57C57.7651 47.0233 57.8217 47.3633 57.9351 47.59C58.0551 47.81 58.2084 47.92 58.3951 47.92ZM62.9751 41.16C62.9884 40.8733 63.0917 40.6533 63.2851 40.5C63.4851 40.3467 63.7217 40.27 63.9951 40.27C64.2417 40.27 64.4284 40.33 64.5551 40.45C64.6884 40.5633 64.7484 40.7233 64.7351 40.93C64.7217 41.19 64.6151 41.4033 64.4151 41.57C64.2151 41.73 63.9751 41.81 63.6951 41.81C63.4617 41.81 63.2784 41.7533 63.1451 41.64C63.0184 41.52 62.9617 41.36 62.9751 41.16ZM62.5951 43.68C62.7084 43.3467 62.6717 43.18 62.4851 43.18C62.3651 43.18 62.2551 43.24 62.1551 43.36C62.0551 43.48 61.9517 43.6833 61.8451 43.97L61.6451 44.48H61.4551L61.7351 43.72C61.8751 43.3267 62.0684 43.0567 62.3151 42.91C62.5617 42.7633 62.8317 42.69 63.1251 42.69C63.4384 42.69 63.6617 42.7633 63.7951 42.91C63.9284 43.0567 63.9951 43.2367 63.9951 43.45C64.0017 43.6633 63.9684 43.8767 63.8951 44.09L62.8451 47.15C62.7851 47.33 62.7684 47.46 62.7951 47.54C62.8284 47.6133 62.8917 47.65 62.9851 47.65C63.0717 47.65 63.1651 47.6 63.2651 47.5C63.3717 47.4 63.4884 47.1867 63.6151 46.86L63.7951 46.38H63.9851L63.7251 47.11C63.5851 47.5167 63.3884 47.79 63.1351 47.93C62.8817 48.07 62.6284 48.14 62.3751 48.14C62.0884 48.14 61.8684 48.0767 61.7151 47.95C61.5684 47.8233 61.4884 47.64 61.4751 47.4C61.4617 47.16 61.5084 46.8767 61.6151 46.55L62.5951 43.68ZM67.9477 43.79C67.9477 43.1967 67.8744 42.6833 67.7277 42.25C67.5811 41.8167 67.3711 41.4467 67.0977 41.14C66.8244 40.8267 66.4944 40.5633 66.1077 40.35L66.2277 40.18C66.8477 40.38 67.3977 40.6667 67.8777 41.04C68.3577 41.4067 68.7311 41.85 68.9977 42.37C69.2711 42.8833 69.4077 43.46 69.4077 44.1C69.4077 44.5533 69.3377 45.02 69.1977 45.5C69.0577 45.9733 68.8511 46.41 68.5777 46.81C68.3044 47.21 67.9644 47.5333 67.5577 47.78C67.1577 48.02 66.6944 48.14 66.1677 48.14C65.8611 48.14 65.5844 48.0867 65.3377 47.98C65.0911 47.8667 64.8977 47.69 64.7577 47.45C64.6177 47.2033 64.5477 46.8833 64.5477 46.49C64.5477 46.11 64.6111 45.7033 64.7377 45.27C64.8711 44.8367 65.0644 44.4267 65.3177 44.04C65.5777 43.6467 65.8877 43.33 66.2477 43.09C66.6144 42.8433 67.0311 42.72 67.4977 42.72C67.6911 42.72 67.8411 42.75 67.9477 42.81C68.0611 42.87 68.1677 42.9533 68.2677 43.06L68.1977 43.18C68.1377 43.0933 68.0511 43.03 67.9377 42.99C67.8244 42.9433 67.7077 42.92 67.5877 42.92C67.3944 42.92 67.2144 43.0133 67.0477 43.2C66.8877 43.38 66.7444 43.6233 66.6177 43.93C66.4911 44.2367 66.3811 44.58 66.2877 44.96C66.1944 45.3333 66.1244 45.7167 66.0777 46.11C66.0311 46.5033 66.0077 46.8767 66.0077 47.23C66.0077 47.51 66.0344 47.7 66.0877 47.8C66.1411 47.8933 66.2277 47.94 66.3477 47.94C66.5677 47.94 66.7744 47.81 66.9677 47.55C67.1611 47.2833 67.3277 46.9433 67.4677 46.53C67.6144 46.11 67.7311 45.66 67.8177 45.18C67.9044 44.6933 67.9477 44.23 67.9477 43.79ZM72.7809 47.39L71.7109 48.6L70.9109 43.69C70.8776 43.51 70.8443 43.3867 70.8109 43.32C70.7776 43.2533 70.7243 43.22 70.6509 43.22C70.5843 43.22 70.5176 43.2667 70.4509 43.36C70.3843 43.4467 70.2943 43.6467 70.1809 43.96L70.0009 44.45H69.8109L70.0609 43.72C70.2009 43.3133 70.3776 43.04 70.5909 42.9C70.8043 42.76 71.0376 42.69 71.2909 42.69C71.5643 42.69 71.7843 42.7667 71.9509 42.92C72.1176 43.0667 72.2309 43.35 72.2909 43.77L72.7809 47.39ZM70.3909 49.39C70.7043 49.2367 71.0276 49.0267 71.3609 48.76C71.6943 48.5 72.0343 48.1467 72.3809 47.7C72.7543 47.24 73.0809 46.7433 73.3609 46.21C73.6409 45.67 73.8476 45.1533 73.9809 44.66C73.7343 44.52 73.5176 44.34 73.3309 44.12C73.1443 43.8933 73.0543 43.6433 73.0609 43.37C73.0609 43.1567 73.1209 42.99 73.2409 42.87C73.3609 42.75 73.5243 42.69 73.7309 42.69C73.9643 42.69 74.1309 42.77 74.2309 42.93C74.3376 43.09 74.3909 43.3133 74.3909 43.6C74.3909 43.9133 74.3376 44.2567 74.2309 44.63C74.1243 45.0033 73.9776 45.39 73.7909 45.79C73.6043 46.1833 73.3943 46.5667 73.1609 46.94C72.9276 47.3133 72.6809 47.6533 72.4209 47.96C72.2143 48.22 71.9809 48.4633 71.7209 48.69C71.4676 48.9167 71.1976 49.12 70.9109 49.3C70.6309 49.48 70.3376 49.6233 70.0309 49.73C69.8843 49.7833 69.7509 49.82 69.6309 49.84C69.5109 49.8667 69.4076 49.88 69.3209 49.88C69.1076 49.88 68.9409 49.83 68.8209 49.73C68.6943 49.6367 68.6309 49.5 68.6309 49.32C68.6309 49.1467 68.6976 49 68.8309 48.88C68.9576 48.76 69.1209 48.7 69.3209 48.7C69.5343 48.7 69.7276 48.76 69.9009 48.88C70.0809 49.0067 70.2443 49.1767 70.3909 49.39Z" fill="#B78D41"/>
<path d="M148.19 35.92C148.35 35.92 148.49 35.8467 148.61 35.7C148.73 35.5467 148.823 35.36 148.89 35.14C148.963 34.9133 149 34.6867 149 34.46C149 34.1933 148.95 33.9867 148.85 33.84C148.75 33.6867 148.62 33.6067 148.46 33.6L148.4 33.54C148.713 33.5 149.017 33.5033 149.31 33.55C149.603 33.59 149.843 33.6833 150.03 33.83C150.223 33.97 150.32 34.17 150.32 34.43C150.32 34.6967 150.21 34.9633 149.99 35.23C149.777 35.49 149.477 35.7067 149.09 35.88C148.71 36.0533 148.277 36.14 147.79 36.14C147.423 36.14 147.11 36.08 146.85 35.96C146.597 35.84 146.4 35.66 146.26 35.42C146.127 35.1733 146.06 34.8733 146.06 34.52C146.06 34.0933 146.15 33.6567 146.33 33.21C146.517 32.7633 146.773 32.35 147.1 31.97C147.427 31.59 147.81 31.2833 148.25 31.05C148.69 30.81 149.16 30.69 149.66 30.69C150.013 30.69 150.303 30.76 150.53 30.9C150.763 31.0333 150.88 31.26 150.88 31.58C150.88 31.8733 150.777 32.15 150.57 32.41C150.363 32.6633 150.09 32.89 149.75 33.09C149.41 33.2833 149.033 33.4433 148.62 33.57C148.213 33.69 147.807 33.7667 147.4 33.8L147.43 33.68C147.823 33.6 148.197 33.4533 148.55 33.24C148.91 33.0267 149.203 32.7567 149.43 32.43C149.663 32.0967 149.78 31.7267 149.78 31.32C149.78 31.1667 149.753 31.0567 149.7 30.99C149.647 30.9167 149.57 30.88 149.47 30.88C149.29 30.88 149.09 30.98 148.87 31.18C148.65 31.38 148.44 31.6533 148.24 32C148.04 32.3467 147.877 32.7433 147.75 33.19C147.623 33.63 147.56 34.09 147.56 34.57C147.56 35.0233 147.617 35.3633 147.73 35.59C147.85 35.81 148.003 35.92 148.19 35.92ZM155.36 35.15C155.333 35.23 155.313 35.31 155.3 35.39C155.287 35.4633 155.29 35.5267 155.31 35.58C155.337 35.6267 155.39 35.65 155.47 35.65C155.583 35.65 155.69 35.5933 155.79 35.48C155.897 35.3667 156.003 35.16 156.11 34.86L156.29 34.35H156.48L156.22 35.11C156.08 35.49 155.887 35.7567 155.64 35.91C155.4 36.0633 155.147 36.14 154.88 36.14C154.687 36.14 154.523 36.1067 154.39 36.04C154.263 35.98 154.167 35.9 154.1 35.8C154.02 35.66 153.987 35.4967 154 35.31C154.02 35.1233 154.057 34.9333 154.11 34.74L155.16 30.83C155.433 30.8233 155.69 30.81 155.93 30.79C156.177 30.77 156.403 30.7367 156.61 30.69L155.36 35.15ZM151.31 35.97C151.57 35.9433 151.793 35.8233 151.98 35.61C152.167 35.39 152.323 35.12 152.45 34.8C152.583 34.48 152.693 34.1567 152.78 33.83C152.873 33.4967 152.95 33.21 153.01 32.97C153.197 32.2567 153.38 31.7033 153.56 31.31C153.74 30.9167 154.01 30.72 154.37 30.72C154.63 30.72 154.813 30.8433 154.92 31.09C155.027 31.3367 155.033 31.65 154.94 32.03L154.83 32.09C154.89 31.7367 154.873 31.4533 154.78 31.24C154.693 31.02 154.553 30.91 154.36 30.91C154.193 30.91 154.05 30.9733 153.93 31.1C153.817 31.2267 153.713 31.4 153.62 31.62C153.533 31.84 153.453 32.0933 153.38 32.38C153.307 32.6667 153.23 32.9667 153.15 33.28C153.05 33.6533 152.94 34.0233 152.82 34.39C152.7 34.7567 152.557 35.0833 152.39 35.37C152.23 35.6567 152.027 35.8667 151.78 36C151.673 36.06 151.57 36.0967 151.47 36.11C151.37 36.13 151.287 36.14 151.22 36.14C150.94 36.14 150.733 36.0633 150.6 35.91C150.46 35.7567 150.39 35.57 150.39 35.35C150.39 35.0967 150.473 34.8933 150.64 34.74C150.8 34.5867 150.997 34.51 151.23 34.51C151.437 34.51 151.59 34.5633 151.69 34.67C151.797 34.77 151.85 34.9 151.85 35.06C151.85 35.2467 151.787 35.42 151.66 35.58C151.54 35.7333 151.39 35.8567 151.21 35.95C151.217 35.95 151.23 35.9533 151.25 35.96C151.27 35.9667 151.29 35.97 151.31 35.97ZM158.648 35.6C158.755 35.6 158.872 35.5433 158.998 35.43C159.125 35.3167 159.255 35.1533 159.388 34.94C159.522 34.72 159.652 34.4533 159.778 34.14C159.905 33.8267 160.022 33.4633 160.128 33.05L159.908 34.14C159.655 34.8867 159.368 35.4067 159.048 35.7C158.728 35.9933 158.382 36.14 158.008 36.14C157.635 36.14 157.355 36.03 157.168 35.81C156.982 35.59 156.888 35.29 156.888 34.91C156.888 34.55 156.948 34.1733 157.068 33.78C157.195 33.3867 157.362 33.0067 157.568 32.64C157.782 32.2733 158.018 31.9433 158.278 31.65C158.545 31.3567 158.825 31.1233 159.118 30.95C159.418 30.7767 159.712 30.69 159.998 30.69C160.218 30.69 160.388 30.7767 160.508 30.95C160.628 31.1233 160.665 31.3933 160.618 31.76L160.508 31.82C160.542 31.58 160.528 31.3933 160.468 31.26C160.415 31.1267 160.322 31.06 160.188 31.06C160.015 31.06 159.825 31.18 159.618 31.42C159.412 31.6533 159.212 31.9633 159.018 32.35C158.832 32.73 158.675 33.1533 158.548 33.62C158.428 34.08 158.368 34.5333 158.368 34.98C158.368 35.2067 158.392 35.3667 158.438 35.46C158.485 35.5533 158.555 35.6 158.648 35.6ZM160.768 30.84C161.055 30.8333 161.315 30.82 161.548 30.8C161.782 30.7733 162.005 30.7367 162.218 30.69L160.908 35.15C160.888 35.2367 160.872 35.32 160.858 35.4C160.852 35.4733 160.862 35.5333 160.888 35.58C160.922 35.6267 160.975 35.65 161.048 35.65C161.135 35.65 161.232 35.6 161.338 35.5C161.445 35.3933 161.555 35.18 161.668 34.86L161.848 34.38H162.038L161.788 35.11C161.642 35.5167 161.442 35.79 161.188 35.93C160.942 36.07 160.702 36.14 160.468 36.14C160.122 36.14 159.875 36.0367 159.728 35.83C159.628 35.6833 159.582 35.5033 159.588 35.29C159.602 35.07 159.648 34.82 159.728 34.54L160.768 30.84ZM166.055 30.89C165.808 30.89 165.565 30.9967 165.325 31.21C165.085 31.4167 164.868 31.6967 164.675 32.05C164.488 32.4033 164.338 32.8 164.225 33.24C164.111 33.68 164.055 34.1333 164.055 34.6C164.055 34.9533 164.125 35.21 164.265 35.37C164.405 35.5233 164.588 35.6 164.815 35.6C165.028 35.6 165.245 35.5367 165.465 35.41C165.685 35.2833 165.908 35.0533 166.135 34.72L166.335 34.8C166.201 35.02 166.028 35.2333 165.815 35.44C165.608 35.6467 165.365 35.8167 165.085 35.95C164.811 36.0767 164.501 36.14 164.155 36.14C163.688 36.14 163.305 36.0167 163.005 35.77C162.705 35.5167 162.555 35.1267 162.555 34.6C162.555 34.1867 162.635 33.7533 162.795 33.3C162.955 32.8467 163.181 32.4233 163.475 32.03C163.775 31.63 164.135 31.3067 164.555 31.06C164.975 30.8133 165.445 30.69 165.965 30.69C166.331 30.69 166.625 30.7833 166.845 30.97C167.071 31.15 167.185 31.3767 167.185 31.65C167.185 31.83 167.141 32.0067 167.055 32.18C166.968 32.3467 166.848 32.4867 166.695 32.6C166.548 32.7067 166.381 32.76 166.195 32.76C166.035 32.76 165.898 32.71 165.785 32.61C165.678 32.5033 165.625 32.36 165.625 32.18C165.625 31.9067 165.715 31.6733 165.895 31.48C166.081 31.28 166.295 31.15 166.535 31.09C166.481 31.0233 166.415 30.9733 166.335 30.94C166.261 30.9067 166.168 30.89 166.055 30.89ZM168.614 33.21H171.314V33.41H168.614V33.21ZM168.664 36H167.254L168.474 31.68C168.5 31.5867 168.517 31.5033 168.524 31.43C168.537 31.3567 168.53 31.2967 168.504 31.25C168.484 31.2033 168.437 31.18 168.364 31.18C168.244 31.18 168.134 31.24 168.034 31.36C167.934 31.4733 167.827 31.6767 167.714 31.97L167.524 32.48H167.334L167.604 31.72C167.737 31.34 167.914 31.0733 168.134 30.92C168.36 30.7667 168.62 30.69 168.914 30.69C169.234 30.69 169.454 30.7633 169.574 30.91C169.694 31.0567 169.754 31.24 169.754 31.46C169.76 31.6733 169.734 31.8833 169.674 32.09L168.664 36ZM171.594 35.15C171.547 35.3167 171.527 35.4433 171.534 35.53C171.54 35.61 171.597 35.65 171.704 35.65C171.824 35.65 171.934 35.5933 172.034 35.48C172.14 35.36 172.244 35.1533 172.344 34.86L172.534 34.35H172.724L172.454 35.11C172.32 35.5033 172.13 35.7733 171.884 35.92C171.637 36.0667 171.38 36.14 171.114 36.14C170.934 36.14 170.78 36.11 170.654 36.05C170.534 35.99 170.44 35.9067 170.374 35.8C170.307 35.6733 170.277 35.5233 170.284 35.35C170.297 35.17 170.33 34.9667 170.384 34.74L171.394 30.83C171.667 30.8233 171.924 30.81 172.164 30.79C172.41 30.77 172.637 30.7367 172.844 30.69L171.594 35.15ZM177.059 32.49C176.812 33.2233 176.576 33.83 176.349 34.31C176.122 34.7833 175.899 35.1533 175.679 35.42C175.466 35.68 175.246 35.8667 175.019 35.98C174.792 36.0867 174.552 36.14 174.299 36.14C173.879 36.14 173.606 36.0067 173.479 35.74C173.352 35.4733 173.369 35.1033 173.529 34.63L174.499 31.68C174.566 31.4867 174.579 31.3567 174.539 31.29C174.506 31.2167 174.449 31.18 174.369 31.18C174.282 31.18 174.186 31.23 174.079 31.33C173.972 31.4233 173.859 31.6367 173.739 31.97L173.559 32.45H173.369L173.619 31.72C173.766 31.3 173.966 31.0233 174.219 30.89C174.472 30.7567 174.719 30.69 174.959 30.69C175.259 30.69 175.482 30.7567 175.629 30.89C175.776 31.0167 175.856 31.2 175.869 31.44C175.882 31.6733 175.836 31.9533 175.729 32.28L174.829 34.98C174.682 35.42 174.716 35.64 174.929 35.64C175.089 35.64 175.272 35.5133 175.479 35.26C175.686 35 175.899 34.6533 176.119 34.22C176.346 33.78 176.562 33.2833 176.769 32.73C176.976 32.1767 177.156 31.6033 177.309 31.01L177.059 32.49ZM177.549 35.15C177.502 35.3167 177.482 35.4433 177.489 35.53C177.496 35.61 177.552 35.65 177.659 35.65C177.779 35.65 177.889 35.5933 177.989 35.48C178.096 35.36 178.199 35.1533 178.299 34.86L178.489 34.35H178.679L178.409 35.11C178.276 35.5033 178.086 35.7733 177.839 35.92C177.592 36.0667 177.336 36.14 177.069 36.14C176.889 36.14 176.736 36.11 176.609 36.05C176.489 35.99 176.396 35.9067 176.329 35.8C176.262 35.6733 176.232 35.5233 176.239 35.35C176.252 35.17 176.286 34.9667 176.339 34.74L177.349 30.83C177.622 30.8233 177.879 30.81 178.119 30.79C178.366 30.77 178.592 30.7367 178.799 30.69L177.549 35.15ZM182.756 35.16C182.789 35.3333 182.832 35.4533 182.886 35.52C182.939 35.5867 183.009 35.62 183.096 35.62C183.189 35.62 183.282 35.5667 183.376 35.46C183.476 35.3467 183.586 35.1133 183.706 34.76L183.836 34.39H184.026L183.776 35.12C183.682 35.4 183.562 35.6133 183.416 35.76C183.269 35.9067 183.109 36.0067 182.936 36.06C182.762 36.1133 182.596 36.14 182.436 36.14C182.142 36.14 181.892 36.07 181.686 35.93C181.486 35.79 181.366 35.5333 181.326 35.16L180.926 31.67C180.899 31.4967 180.856 31.3833 180.796 31.33C180.736 31.2767 180.662 31.25 180.576 31.25C180.489 31.25 180.399 31.3 180.306 31.4C180.212 31.4933 180.102 31.7167 179.976 32.07L179.846 32.44H179.656L179.906 31.71C180.006 31.43 180.129 31.2167 180.276 31.07C180.422 30.9233 180.586 30.8233 180.766 30.77C180.946 30.7167 181.119 30.69 181.286 30.69C181.599 30.69 181.849 30.7633 182.036 30.91C182.222 31.05 182.336 31.33 182.376 31.75L182.756 35.16ZM183.246 31.4C182.999 31.6867 182.796 32.0167 182.636 32.39C182.476 32.7567 182.352 33.0867 182.266 33.38C182.266 33.38 182.232 33.38 182.166 33.38C182.099 33.3733 182.066 33.37 182.066 33.37C182.092 33.2567 182.146 33.0833 182.226 32.85C182.312 32.6167 182.422 32.3633 182.556 32.09C182.696 31.81 182.862 31.5467 183.056 31.3C183.242 31.0667 183.426 30.9067 183.606 30.82C183.792 30.7333 183.976 30.69 184.156 30.69C184.369 30.69 184.542 30.7467 184.676 30.86C184.816 30.9733 184.886 31.1367 184.886 31.35C184.886 31.5567 184.816 31.73 184.676 31.87C184.536 32.0033 184.356 32.07 184.136 32.07C183.949 32.07 183.772 32.0167 183.606 31.91C183.446 31.8033 183.326 31.6333 183.246 31.4ZM180.316 35.43C180.569 35.1433 180.786 34.8167 180.966 34.45C181.146 34.0833 181.282 33.75 181.376 33.45C181.376 33.45 181.406 33.4533 181.466 33.46C181.532 33.4667 181.566 33.47 181.566 33.47C181.512 33.6567 181.439 33.87 181.346 34.11C181.252 34.3433 181.136 34.5833 180.996 34.83C180.862 35.07 180.706 35.3033 180.526 35.53C180.332 35.7567 180.142 35.9133 179.956 36C179.769 36.0933 179.589 36.14 179.416 36.14C179.182 36.14 179.002 36.0833 178.876 35.97C178.749 35.8567 178.686 35.7033 178.686 35.51C178.686 35.2833 178.762 35.1033 178.916 34.97C179.062 34.83 179.239 34.76 179.446 34.76C179.666 34.76 179.846 34.8233 179.986 34.95C180.132 35.0767 180.242 35.2367 180.316 35.43ZM186.32 36H184.91L186.12 31.68C186.153 31.5867 186.173 31.5033 186.18 31.43C186.193 31.35 186.187 31.29 186.16 31.25C186.133 31.2033 186.083 31.18 186.01 31.18C185.89 31.18 185.78 31.2367 185.68 31.35C185.587 31.4567 185.483 31.6633 185.37 31.97L185.18 32.48H184.99L185.26 31.72C185.393 31.34 185.567 31.0733 185.78 30.92C186 30.7667 186.257 30.69 186.55 30.69C186.87 30.69 187.093 30.7633 187.22 30.91C187.347 31.05 187.41 31.23 187.41 31.45C187.41 31.6633 187.383 31.8767 187.33 32.09L186.32 36ZM186.64 34.31C186.9 33.5833 187.14 32.9867 187.36 32.52C187.587 32.0467 187.807 31.6767 188.02 31.41C188.24 31.1433 188.463 30.9567 188.69 30.85C188.917 30.7433 189.16 30.69 189.42 30.69C189.74 30.69 189.97 30.76 190.11 30.9C190.25 31.04 190.32 31.2267 190.32 31.46C190.32 31.6867 190.277 31.9333 190.19 32.2L189.21 35.15C189.143 35.3367 189.127 35.4667 189.16 35.54C189.193 35.6133 189.253 35.65 189.34 35.65C189.427 35.65 189.523 35.6033 189.63 35.51C189.737 35.41 189.85 35.1933 189.97 34.86L190.15 34.38H190.34L190.09 35.11C189.943 35.53 189.743 35.8067 189.49 35.94C189.237 36.0733 188.99 36.14 188.75 36.14C188.37 36.14 188.103 36.03 187.95 35.81C187.863 35.6767 187.82 35.51 187.82 35.31C187.827 35.1033 187.88 34.85 187.98 34.55L188.88 31.85C188.92 31.7433 188.947 31.64 188.96 31.54C188.973 31.44 188.97 31.3567 188.95 31.29C188.93 31.2233 188.873 31.19 188.78 31.19C188.62 31.19 188.437 31.3167 188.23 31.57C188.023 31.8233 187.807 32.1633 187.58 32.59C187.36 33.0167 187.147 33.5 186.94 34.04C186.733 34.58 186.55 35.1367 186.39 35.71L186.64 34.31ZM194.515 31.22C194.382 31.22 194.235 31.3067 194.075 31.48C193.922 31.6467 193.765 31.8767 193.605 32.17C193.452 32.4633 193.305 32.7967 193.165 33.17C193.025 33.5433 192.909 33.9333 192.815 34.34L192.995 33.32C193.315 32.38 193.639 31.7067 193.965 31.3C194.299 30.8933 194.665 30.69 195.065 30.69C195.472 30.69 195.779 30.8233 195.985 31.09C196.199 31.35 196.305 31.73 196.305 32.23C196.305 32.5367 196.262 32.87 196.175 33.23C196.095 33.5833 195.972 33.9333 195.805 34.28C195.639 34.62 195.432 34.93 195.185 35.21C194.945 35.49 194.669 35.7167 194.355 35.89C194.042 36.0567 193.695 36.14 193.315 36.14C193.102 36.14 192.905 36.1 192.725 36.02C192.552 35.94 192.425 35.8333 192.345 35.7L192.415 35.54C192.482 35.6533 192.555 35.7333 192.635 35.78C192.722 35.8267 192.819 35.85 192.925 35.85C193.125 35.85 193.319 35.77 193.505 35.61C193.692 35.45 193.865 35.2367 194.025 34.97C194.192 34.7033 194.335 34.4067 194.455 34.08C194.582 33.7467 194.679 33.4067 194.745 33.06C194.812 32.7067 194.845 32.37 194.845 32.05C194.845 31.7233 194.815 31.5033 194.755 31.39C194.695 31.2767 194.615 31.22 194.515 31.22ZM192.815 29.42C193.095 29.4 193.355 29.3667 193.595 29.32C193.842 29.2733 194.079 29.2133 194.305 29.14L192.145 36.75C192.052 37.0967 192.075 37.3233 192.215 37.43C192.355 37.5367 192.589 37.5933 192.915 37.6L192.855 37.81C192.702 37.8033 192.482 37.7933 192.195 37.78C191.909 37.7733 191.602 37.77 191.275 37.77C191.009 37.77 190.742 37.7733 190.475 37.78C190.209 37.7933 190.005 37.8033 189.865 37.81L189.925 37.6C190.165 37.6 190.339 37.5533 190.445 37.46C190.552 37.3733 190.639 37.2133 190.705 36.98L192.815 29.42ZM190.885 32.5C191.125 32.24 191.352 31.9833 191.565 31.73C191.779 31.47 191.985 31.1633 192.185 30.81C192.385 30.4567 192.592 30.0133 192.805 29.48L192.835 29.64C192.615 30.3333 192.349 30.9033 192.035 31.35C191.729 31.7967 191.382 32.2233 190.995 32.63L190.885 32.5ZM149.31 42.89C149.157 42.89 148.993 42.9833 148.82 43.17C148.653 43.35 148.487 43.5933 148.32 43.9C148.16 44.2067 148.013 44.55 147.88 44.93C147.753 45.31 147.65 45.7033 147.57 46.11C147.497 46.51 147.46 46.8933 147.46 47.26C147.46 47.5 147.487 47.6733 147.54 47.78C147.6 47.8867 147.687 47.94 147.8 47.94C147.953 47.94 148.113 47.8533 148.28 47.68C148.447 47.5 148.61 47.26 148.77 46.96C148.93 46.66 149.073 46.3233 149.2 45.95C149.333 45.57 149.44 45.1767 149.52 44.77C149.6 44.3633 149.64 43.97 149.64 43.59C149.64 43.31 149.61 43.1233 149.55 43.03C149.497 42.9367 149.417 42.89 149.31 42.89ZM146.12 46.49C146.12 46.11 146.187 45.7 146.32 45.26C146.453 44.82 146.653 44.4067 146.92 44.02C147.193 43.6267 147.53 43.3067 147.93 43.06C148.337 42.8133 148.813 42.69 149.36 42.69C149.873 42.69 150.27 42.83 150.55 43.11C150.837 43.39 150.98 43.8 150.98 44.34C150.98 44.72 150.913 45.13 150.78 45.57C150.647 46.01 150.443 46.4267 150.17 46.82C149.903 47.2067 149.567 47.5233 149.16 47.77C148.76 48.0167 148.287 48.14 147.74 48.14C147.227 48.14 146.827 48 146.54 47.72C146.26 47.44 146.12 47.03 146.12 46.49ZM154.813 43.79C154.813 43.1967 154.74 42.6833 154.593 42.25C154.446 41.8167 154.236 41.4467 153.963 41.14C153.69 40.8267 153.36 40.5633 152.973 40.35L153.093 40.18C153.713 40.38 154.263 40.6667 154.743 41.04C155.223 41.4067 155.596 41.85 155.863 42.37C156.136 42.8833 156.273 43.46 156.273 44.1C156.273 44.5533 156.203 45.02 156.063 45.5C155.923 45.9733 155.716 46.41 155.443 46.81C155.17 47.21 154.83 47.5333 154.423 47.78C154.023 48.02 153.56 48.14 153.033 48.14C152.726 48.14 152.45 48.0867 152.203 47.98C151.956 47.8667 151.763 47.69 151.623 47.45C151.483 47.2033 151.413 46.8833 151.413 46.49C151.413 46.11 151.476 45.7033 151.603 45.27C151.736 44.8367 151.93 44.4267 152.183 44.04C152.443 43.6467 152.753 43.33 153.113 43.09C153.48 42.8433 153.896 42.72 154.363 42.72C154.556 42.72 154.706 42.75 154.813 42.81C154.926 42.87 155.033 42.9533 155.133 43.06L155.063 43.18C155.003 43.0933 154.916 43.03 154.803 42.99C154.69 42.9433 154.573 42.92 154.453 42.92C154.26 42.92 154.08 43.0133 153.913 43.2C153.753 43.38 153.61 43.6233 153.483 43.93C153.356 44.2367 153.246 44.58 153.153 44.96C153.06 45.3333 152.99 45.7167 152.943 46.11C152.896 46.5033 152.873 46.8767 152.873 47.23C152.873 47.51 152.9 47.7 152.953 47.8C153.006 47.8933 153.093 47.94 153.213 47.94C153.433 47.94 153.64 47.81 153.833 47.55C154.026 47.2833 154.193 46.9433 154.333 46.53C154.48 46.11 154.596 45.66 154.683 45.18C154.77 44.6933 154.813 44.23 154.813 43.79ZM159.646 47.39L158.576 48.6L157.776 43.69C157.743 43.51 157.71 43.3867 157.676 43.32C157.643 43.2533 157.59 43.22 157.516 43.22C157.45 43.22 157.383 43.2667 157.316 43.36C157.25 43.4467 157.16 43.6467 157.046 43.96L156.866 44.45H156.676L156.926 43.72C157.066 43.3133 157.243 43.04 157.456 42.9C157.67 42.76 157.903 42.69 158.156 42.69C158.43 42.69 158.65 42.7667 158.816 42.92C158.983 43.0667 159.096 43.35 159.156 43.77L159.646 47.39ZM157.256 49.39C157.57 49.2367 157.893 49.0267 158.226 48.76C158.56 48.5 158.9 48.1467 159.246 47.7C159.62 47.24 159.946 46.7433 160.226 46.21C160.506 45.67 160.713 45.1533 160.846 44.66C160.6 44.52 160.383 44.34 160.196 44.12C160.01 43.8933 159.92 43.6433 159.926 43.37C159.926 43.1567 159.986 42.99 160.106 42.87C160.226 42.75 160.39 42.69 160.596 42.69C160.83 42.69 160.996 42.77 161.096 42.93C161.203 43.09 161.256 43.3133 161.256 43.6C161.256 43.9133 161.203 44.2567 161.096 44.63C160.99 45.0033 160.843 45.39 160.656 45.79C160.47 46.1833 160.26 46.5667 160.026 46.94C159.793 47.3133 159.546 47.6533 159.286 47.96C159.08 48.22 158.846 48.4633 158.586 48.69C158.333 48.9167 158.063 49.12 157.776 49.3C157.496 49.48 157.203 49.6233 156.896 49.73C156.75 49.7833 156.616 49.82 156.496 49.84C156.376 49.8667 156.273 49.88 156.186 49.88C155.973 49.88 155.806 49.83 155.686 49.73C155.56 49.6367 155.496 49.5 155.496 49.32C155.496 49.1467 155.563 49 155.696 48.88C155.823 48.76 155.986 48.7 156.186 48.7C156.4 48.7 156.593 48.76 156.766 48.88C156.946 49.0067 157.11 49.1767 157.256 49.39ZM165.63 47.23C165.604 47.39 165.6 47.5 165.62 47.56C165.647 47.62 165.7 47.65 165.78 47.65C165.874 47.65 165.97 47.6 166.07 47.5C166.17 47.3933 166.28 47.18 166.4 46.86L166.57 46.38H166.76L166.51 47.11C166.424 47.3767 166.3 47.5867 166.14 47.74C165.987 47.8867 165.817 47.99 165.63 48.05C165.45 48.11 165.274 48.14 165.1 48.14C164.774 48.14 164.534 48.0467 164.38 47.86C164.227 47.6667 164.194 47.3767 164.28 46.99L164.41 46.4C164.49 46.0467 164.47 45.79 164.35 45.63C164.23 45.47 163.954 45.37 163.52 45.33V45.29C163.827 45.27 164.124 45.27 164.41 45.29C164.697 45.31 164.95 45.37 165.17 45.47C165.39 45.5633 165.554 45.71 165.66 45.91C165.774 46.1033 165.8 46.3567 165.74 46.67L165.63 47.23ZM166.1 42.89C166.007 42.89 165.927 42.9033 165.86 42.93C165.794 42.9567 165.73 42.9933 165.67 43.04C165.55 43.1467 165.45 43.2933 165.37 43.48C165.297 43.6667 165.22 43.8667 165.14 44.08C165.067 44.2867 164.974 44.4867 164.86 44.68C164.747 44.8733 164.594 45.03 164.4 45.15C164.207 45.27 163.954 45.3267 163.64 45.32L163.54 45.33L163.56 45.22C163.867 45.2 164.11 45.1267 164.29 45C164.477 44.8733 164.62 44.7167 164.72 44.53C164.827 44.3433 164.914 44.15 164.98 43.95C165.047 43.7433 165.12 43.55 165.2 43.37C165.28 43.1833 165.387 43.0333 165.52 42.92C165.627 42.8333 165.737 42.7733 165.85 42.74C165.964 42.7067 166.064 42.69 166.15 42.69C166.47 42.69 166.704 42.7833 166.85 42.97C167.004 43.15 167.077 43.3633 167.07 43.61C167.07 43.8567 166.994 44.0633 166.84 44.23C166.687 44.39 166.484 44.47 166.23 44.47C166.017 44.47 165.857 44.4133 165.75 44.3C165.644 44.18 165.59 44.0433 165.59 43.89C165.597 43.6833 165.667 43.5 165.8 43.34C165.934 43.18 166.084 43.0567 166.25 42.97C166.237 42.9433 166.214 42.9233 166.18 42.91C166.154 42.8967 166.127 42.89 166.1 42.89ZM162.92 48H161.51L162.78 43.68C162.807 43.5867 162.827 43.5033 162.84 43.43C162.854 43.3567 162.847 43.2967 162.82 43.25C162.8 43.2033 162.754 43.18 162.68 43.18C162.56 43.18 162.447 43.24 162.34 43.36C162.24 43.4733 162.134 43.6767 162.02 43.97L161.83 44.48H161.64L161.91 43.72C162.05 43.34 162.234 43.0733 162.46 42.92C162.687 42.7667 162.947 42.69 163.24 42.69C163.554 42.69 163.77 42.7633 163.89 42.91C164.01 43.0567 164.07 43.24 164.07 43.46C164.07 43.6733 164.04 43.8833 163.98 44.09L162.92 48ZM168.898 48H167.488L168.708 43.68C168.735 43.5933 168.748 43.5133 168.748 43.44C168.755 43.36 168.748 43.2967 168.728 43.25C168.708 43.2033 168.658 43.18 168.578 43.18C168.465 43.18 168.358 43.24 168.258 43.36C168.158 43.48 168.055 43.6833 167.948 43.97L167.758 44.48H167.568L167.838 43.72C167.978 43.3267 168.171 43.0567 168.418 42.91C168.665 42.7633 168.921 42.69 169.188 42.69C169.488 42.69 169.698 42.7633 169.818 42.91C169.938 43.0567 169.998 43.2367 169.998 43.45C169.998 43.6633 169.968 43.8767 169.908 44.09L168.898 48ZM171.318 43.85C171.371 43.6833 171.398 43.5433 171.398 43.43C171.405 43.31 171.351 43.25 171.238 43.25C171.085 43.25 170.921 43.3433 170.748 43.53C170.575 43.71 170.395 43.9667 170.208 44.3C170.028 44.6333 169.848 45.03 169.668 45.49C169.488 45.95 169.318 46.4533 169.158 47L169.208 46.31C169.488 45.4233 169.761 44.7167 170.028 44.19C170.295 43.6567 170.581 43.2733 170.888 43.04C171.195 42.8067 171.541 42.69 171.928 42.69C172.221 42.69 172.425 42.76 172.538 42.9C172.658 43.0333 172.718 43.2167 172.718 43.45C172.718 43.6767 172.678 43.9267 172.598 44.2L171.528 48H170.098L171.318 43.85ZM173.988 43.85C174.048 43.6767 174.075 43.5333 174.068 43.42C174.068 43.3067 174.021 43.25 173.928 43.25C173.761 43.25 173.561 43.39 173.328 43.67C173.095 43.9433 172.848 44.3667 172.588 44.94C172.328 45.5067 172.061 46.2267 171.788 47.1L171.808 46.56C172.048 45.8 172.275 45.17 172.488 44.67C172.708 44.17 172.928 43.7767 173.148 43.49C173.375 43.1967 173.608 42.99 173.848 42.87C174.088 42.75 174.345 42.69 174.618 42.69C174.905 42.69 175.111 42.76 175.238 42.9C175.365 43.0333 175.428 43.2133 175.428 43.44C175.435 43.6667 175.391 43.92 175.298 44.2L174.318 47.15C174.251 47.3433 174.235 47.4767 174.268 47.55C174.308 47.6167 174.368 47.65 174.448 47.65C174.535 47.65 174.631 47.6033 174.738 47.51C174.845 47.41 174.958 47.1933 175.078 46.86L175.258 46.38H175.448L175.198 47.11C175.051 47.53 174.851 47.8067 174.598 47.94C174.345 48.0733 174.095 48.14 173.848 48.14C173.655 48.14 173.491 48.1067 173.358 48.04C173.225 47.98 173.121 47.8933 173.048 47.78C172.961 47.6467 172.921 47.4767 172.928 47.27C172.941 47.0633 172.995 46.8233 173.088 46.55L173.988 43.85ZM177.672 41.16C177.686 40.8733 177.789 40.6533 177.982 40.5C178.182 40.3467 178.419 40.27 178.692 40.27C178.939 40.27 179.126 40.33 179.252 40.45C179.386 40.5633 179.446 40.7233 179.432 40.93C179.419 41.19 179.312 41.4033 179.112 41.57C178.912 41.73 178.672 41.81 178.392 41.81C178.159 41.81 177.976 41.7533 177.842 41.64C177.716 41.52 177.659 41.36 177.672 41.16ZM177.292 43.68C177.406 43.3467 177.369 43.18 177.182 43.18C177.062 43.18 176.952 43.24 176.852 43.36C176.752 43.48 176.649 43.6833 176.542 43.97L176.342 44.48H176.152L176.432 43.72C176.572 43.3267 176.766 43.0567 177.012 42.91C177.259 42.7633 177.529 42.69 177.822 42.69C178.136 42.69 178.359 42.7633 178.492 42.91C178.626 43.0567 178.692 43.2367 178.692 43.45C178.699 43.6633 178.666 43.8767 178.592 44.09L177.542 47.15C177.482 47.33 177.466 47.46 177.492 47.54C177.526 47.6133 177.589 47.65 177.682 47.65C177.769 47.65 177.862 47.6 177.962 47.5C178.069 47.4 178.186 47.1867 178.312 46.86L178.492 46.38H178.682L178.422 47.11C178.282 47.5167 178.086 47.79 177.832 47.93C177.579 48.07 177.326 48.14 177.072 48.14C176.786 48.14 176.566 48.0767 176.412 47.95C176.266 47.8233 176.186 47.64 176.172 47.4C176.159 47.16 176.206 46.8767 176.312 46.55L177.292 43.68ZM181.315 47.92C181.475 47.92 181.615 47.8467 181.735 47.7C181.855 47.5467 181.948 47.36 182.015 47.14C182.088 46.9133 182.125 46.6867 182.125 46.46C182.125 46.1933 182.075 45.9867 181.975 45.84C181.875 45.6867 181.745 45.6067 181.585 45.6L181.525 45.54C181.838 45.5 182.142 45.5033 182.435 45.55C182.728 45.59 182.968 45.6833 183.155 45.83C183.348 45.97 183.445 46.17 183.445 46.43C183.445 46.6967 183.335 46.9633 183.115 47.23C182.902 47.49 182.602 47.7067 182.215 47.88C181.835 48.0533 181.402 48.14 180.915 48.14C180.548 48.14 180.235 48.08 179.975 47.96C179.722 47.84 179.525 47.66 179.385 47.42C179.252 47.1733 179.185 46.8733 179.185 46.52C179.185 46.0933 179.275 45.6567 179.455 45.21C179.642 44.7633 179.898 44.35 180.225 43.97C180.552 43.59 180.935 43.2833 181.375 43.05C181.815 42.81 182.285 42.69 182.785 42.69C183.138 42.69 183.428 42.76 183.655 42.9C183.888 43.0333 184.005 43.26 184.005 43.58C184.005 43.8733 183.902 44.15 183.695 44.41C183.488 44.6633 183.215 44.89 182.875 45.09C182.535 45.2833 182.158 45.4433 181.745 45.57C181.338 45.69 180.932 45.7667 180.525 45.8L180.555 45.68C180.948 45.6 181.322 45.4533 181.675 45.24C182.035 45.0267 182.328 44.7567 182.555 44.43C182.788 44.0967 182.905 43.7267 182.905 43.32C182.905 43.1667 182.878 43.0567 182.825 42.99C182.772 42.9167 182.695 42.88 182.595 42.88C182.415 42.88 182.215 42.98 181.995 43.18C181.775 43.38 181.565 43.6533 181.365 44C181.165 44.3467 181.002 44.7433 180.875 45.19C180.748 45.63 180.685 46.09 180.685 46.57C180.685 47.0233 180.742 47.3633 180.855 47.59C180.975 47.81 181.128 47.92 181.315 47.92Z" fill="#B78D41"/>
<path d="M243.51 33.21H246.21V33.41H243.51V33.21ZM243.56 36H242.15L243.37 31.68C243.397 31.5867 243.413 31.5033 243.42 31.43C243.433 31.3567 243.427 31.2967 243.4 31.25C243.38 31.2033 243.333 31.18 243.26 31.18C243.14 31.18 243.03 31.24 242.93 31.36C242.83 31.4733 242.723 31.6767 242.61 31.97L242.42 32.48H242.23L242.5 31.72C242.633 31.34 242.81 31.0733 243.03 30.92C243.257 30.7667 243.517 30.69 243.81 30.69C244.13 30.69 244.35 30.7633 244.47 30.91C244.59 31.0567 244.65 31.24 244.65 31.46C244.657 31.6733 244.63 31.8833 244.57 32.09L243.56 36ZM246.49 35.15C246.443 35.3167 246.423 35.4433 246.43 35.53C246.437 35.61 246.493 35.65 246.6 35.65C246.72 35.65 246.83 35.5933 246.93 35.48C247.037 35.36 247.14 35.1533 247.24 34.86L247.43 34.35H247.62L247.35 35.11C247.217 35.5033 247.027 35.7733 246.78 35.92C246.533 36.0667 246.277 36.14 246.01 36.14C245.83 36.14 245.677 36.11 245.55 36.05C245.43 35.99 245.337 35.9067 245.27 35.8C245.203 35.6733 245.173 35.5233 245.18 35.35C245.193 35.17 245.227 34.9667 245.28 34.74L246.29 30.83C246.563 30.8233 246.82 30.81 247.06 30.79C247.307 30.77 247.533 30.7367 247.74 30.69L246.49 35.15ZM251.335 30.89C251.182 30.89 251.019 30.9833 250.845 31.17C250.679 31.35 250.512 31.5933 250.345 31.9C250.185 32.2067 250.039 32.55 249.905 32.93C249.779 33.31 249.675 33.7033 249.595 34.11C249.522 34.51 249.485 34.8933 249.485 35.26C249.485 35.5 249.512 35.6733 249.565 35.78C249.625 35.8867 249.712 35.94 249.825 35.94C249.979 35.94 250.139 35.8533 250.305 35.68C250.472 35.5 250.635 35.26 250.795 34.96C250.955 34.66 251.099 34.3233 251.225 33.95C251.359 33.57 251.465 33.1767 251.545 32.77C251.625 32.3633 251.665 31.97 251.665 31.59C251.665 31.31 251.635 31.1233 251.575 31.03C251.522 30.9367 251.442 30.89 251.335 30.89ZM248.145 34.49C248.145 34.11 248.212 33.7 248.345 33.26C248.479 32.82 248.679 32.4067 248.945 32.02C249.219 31.6267 249.555 31.3067 249.955 31.06C250.362 30.8133 250.839 30.69 251.385 30.69C251.899 30.69 252.295 30.83 252.575 31.11C252.862 31.39 253.005 31.8 253.005 32.34C253.005 32.72 252.939 33.13 252.805 33.57C252.672 34.01 252.469 34.4267 252.195 34.82C251.929 35.2067 251.592 35.5233 251.185 35.77C250.785 36.0167 250.312 36.14 249.765 36.14C249.252 36.14 248.852 36 248.565 35.72C248.285 35.44 248.145 35.03 248.145 34.49ZM255.508 35.92C255.668 35.92 255.808 35.8467 255.928 35.7C256.048 35.5467 256.142 35.36 256.208 35.14C256.282 34.9133 256.318 34.6867 256.318 34.46C256.318 34.1933 256.268 33.9867 256.168 33.84C256.068 33.6867 255.938 33.6067 255.778 33.6L255.718 33.54C256.032 33.5 256.335 33.5033 256.628 33.55C256.922 33.59 257.162 33.6833 257.348 33.83C257.542 33.97 257.638 34.17 257.638 34.43C257.638 34.6967 257.528 34.9633 257.308 35.23C257.095 35.49 256.795 35.7067 256.408 35.88C256.028 36.0533 255.595 36.14 255.108 36.14C254.742 36.14 254.428 36.08 254.168 35.96C253.915 35.84 253.718 35.66 253.578 35.42C253.445 35.1733 253.378 34.8733 253.378 34.52C253.378 34.0933 253.468 33.6567 253.648 33.21C253.835 32.7633 254.092 32.35 254.418 31.97C254.745 31.59 255.128 31.2833 255.568 31.05C256.008 30.81 256.478 30.69 256.978 30.69C257.332 30.69 257.622 30.76 257.848 30.9C258.082 31.0333 258.198 31.26 258.198 31.58C258.198 31.8733 258.095 32.15 257.888 32.41C257.682 32.6633 257.408 32.89 257.068 33.09C256.728 33.2833 256.352 33.4433 255.938 33.57C255.532 33.69 255.125 33.7667 254.718 33.8L254.748 33.68C255.142 33.6 255.515 33.4533 255.868 33.24C256.228 33.0267 256.522 32.7567 256.748 32.43C256.982 32.0967 257.098 31.7267 257.098 31.32C257.098 31.1667 257.072 31.0567 257.018 30.99C256.965 30.9167 256.888 30.88 256.788 30.88C256.608 30.88 256.408 30.98 256.188 31.18C255.968 31.38 255.758 31.6533 255.558 32C255.358 32.3467 255.195 32.7433 255.068 33.19C254.942 33.63 254.878 34.09 254.878 34.57C254.878 35.0233 254.935 35.3633 255.048 35.59C255.168 35.81 255.322 35.92 255.508 35.92ZM260.088 29.16C260.102 28.8733 260.205 28.6533 260.398 28.5C260.598 28.3467 260.835 28.27 261.108 28.27C261.355 28.27 261.542 28.33 261.668 28.45C261.802 28.5633 261.862 28.7233 261.848 28.93C261.835 29.19 261.728 29.4033 261.528 29.57C261.328 29.73 261.088 29.81 260.808 29.81C260.575 29.81 260.392 29.7533 260.258 29.64C260.132 29.52 260.075 29.36 260.088 29.16ZM259.708 31.68C259.822 31.3467 259.785 31.18 259.598 31.18C259.478 31.18 259.368 31.24 259.268 31.36C259.168 31.48 259.065 31.6833 258.958 31.97L258.758 32.48H258.568L258.848 31.72C258.988 31.3267 259.182 31.0567 259.428 30.91C259.675 30.7633 259.945 30.69 260.238 30.69C260.552 30.69 260.775 30.7633 260.908 30.91C261.042 31.0567 261.108 31.2367 261.108 31.45C261.115 31.6633 261.082 31.8767 261.008 32.09L259.958 35.15C259.898 35.33 259.882 35.46 259.908 35.54C259.942 35.6133 260.005 35.65 260.098 35.65C260.185 35.65 260.278 35.6 260.378 35.5C260.485 35.4 260.602 35.1867 260.728 34.86L260.908 34.38H261.098L260.838 35.11C260.698 35.5167 260.502 35.79 260.248 35.93C259.995 36.07 259.742 36.14 259.488 36.14C259.202 36.14 258.982 36.0767 258.828 35.95C258.682 35.8233 258.602 35.64 258.588 35.4C258.575 35.16 258.622 34.8767 258.728 34.55L259.708 31.68ZM263.101 36H261.691L262.911 31.68C262.938 31.5933 262.951 31.5133 262.951 31.44C262.958 31.36 262.951 31.2967 262.931 31.25C262.911 31.2033 262.861 31.18 262.781 31.18C262.668 31.18 262.561 31.24 262.461 31.36C262.361 31.48 262.258 31.6833 262.151 31.97L261.961 32.48H261.771L262.041 31.72C262.181 31.3267 262.374 31.0567 262.621 30.91C262.868 30.7633 263.124 30.69 263.391 30.69C263.691 30.69 263.901 30.7633 264.021 30.91C264.141 31.0567 264.201 31.2367 264.201 31.45C264.201 31.6633 264.171 31.8767 264.111 32.09L263.101 36ZM265.521 31.85C265.574 31.6833 265.601 31.5433 265.601 31.43C265.608 31.31 265.554 31.25 265.441 31.25C265.288 31.25 265.124 31.3433 264.951 31.53C264.778 31.71 264.598 31.9667 264.411 32.3C264.231 32.6333 264.051 33.03 263.871 33.49C263.691 33.95 263.521 34.4533 263.361 35L263.411 34.31C263.691 33.4233 263.964 32.7167 264.231 32.19C264.498 31.6567 264.784 31.2733 265.091 31.04C265.398 30.8067 265.744 30.69 266.131 30.69C266.424 30.69 266.628 30.76 266.741 30.9C266.861 31.0333 266.921 31.2167 266.921 31.45C266.921 31.6767 266.881 31.9267 266.801 32.2L265.731 36H264.301L265.521 31.85ZM268.191 31.85C268.251 31.6767 268.278 31.5333 268.271 31.42C268.271 31.3067 268.224 31.25 268.131 31.25C267.964 31.25 267.764 31.39 267.531 31.67C267.298 31.9433 267.051 32.3667 266.791 32.94C266.531 33.5067 266.264 34.2267 265.991 35.1L266.011 34.56C266.251 33.8 266.478 33.17 266.691 32.67C266.911 32.17 267.131 31.7767 267.351 31.49C267.578 31.1967 267.811 30.99 268.051 30.87C268.291 30.75 268.548 30.69 268.821 30.69C269.108 30.69 269.314 30.76 269.441 30.9C269.568 31.0333 269.631 31.2133 269.631 31.44C269.638 31.6667 269.594 31.92 269.501 32.2L268.521 35.15C268.454 35.3433 268.438 35.4767 268.471 35.55C268.511 35.6167 268.571 35.65 268.651 35.65C268.738 35.65 268.834 35.6033 268.941 35.51C269.048 35.41 269.161 35.1933 269.281 34.86L269.461 34.38H269.651L269.401 35.11C269.254 35.53 269.054 35.8067 268.801 35.94C268.548 36.0733 268.298 36.14 268.051 36.14C267.858 36.14 267.694 36.1067 267.561 36.04C267.428 35.98 267.324 35.8933 267.251 35.78C267.164 35.6467 267.124 35.4767 267.131 35.27C267.144 35.0633 267.198 34.8233 267.291 34.55L268.191 31.85ZM271.615 33.21H274.315V33.41H271.615V33.21ZM271.665 36H270.255L271.475 31.68C271.502 31.5867 271.519 31.5033 271.525 31.43C271.539 31.3567 271.532 31.2967 271.505 31.25C271.485 31.2033 271.439 31.18 271.365 31.18C271.245 31.18 271.135 31.24 271.035 31.36C270.935 31.4733 270.829 31.6767 270.715 31.97L270.525 32.48H270.335L270.605 31.72C270.739 31.34 270.915 31.0733 271.135 30.92C271.362 30.7667 271.622 30.69 271.915 30.69C272.235 30.69 272.455 30.7633 272.575 30.91C272.695 31.0567 272.755 31.24 272.755 31.46C272.762 31.6733 272.735 31.8833 272.675 32.09L271.665 36ZM274.595 35.15C274.549 35.3167 274.529 35.4433 274.535 35.53C274.542 35.61 274.599 35.65 274.705 35.65C274.825 35.65 274.935 35.5933 275.035 35.48C275.142 35.36 275.245 35.1533 275.345 34.86L275.535 34.35H275.725L275.455 35.11C275.322 35.5033 275.132 35.7733 274.885 35.92C274.639 36.0667 274.382 36.14 274.115 36.14C273.935 36.14 273.782 36.11 273.655 36.05C273.535 35.99 273.442 35.9067 273.375 35.8C273.309 35.6733 273.279 35.5233 273.285 35.35C273.299 35.17 273.332 34.9667 273.385 34.74L274.395 30.83C274.669 30.8233 274.925 30.81 275.165 30.79C275.412 30.77 275.639 30.7367 275.845 30.69L274.595 35.15ZM277.901 29.16C277.914 28.8733 278.018 28.6533 278.211 28.5C278.411 28.3467 278.648 28.27 278.921 28.27C279.168 28.27 279.354 28.33 279.481 28.45C279.614 28.5633 279.674 28.7233 279.661 28.93C279.648 29.19 279.541 29.4033 279.341 29.57C279.141 29.73 278.901 29.81 278.621 29.81C278.388 29.81 278.204 29.7533 278.071 29.64C277.944 29.52 277.888 29.36 277.901 29.16ZM277.521 31.68C277.634 31.3467 277.598 31.18 277.411 31.18C277.291 31.18 277.181 31.24 277.081 31.36C276.981 31.48 276.878 31.6833 276.771 31.97L276.571 32.48H276.381L276.661 31.72C276.801 31.3267 276.994 31.0567 277.241 30.91C277.488 30.7633 277.758 30.69 278.051 30.69C278.364 30.69 278.588 30.7633 278.721 30.91C278.854 31.0567 278.921 31.2367 278.921 31.45C278.928 31.6633 278.894 31.8767 278.821 32.09L277.771 35.15C277.711 35.33 277.694 35.46 277.721 35.54C277.754 35.6133 277.818 35.65 277.911 35.65C277.998 35.65 278.091 35.6 278.191 35.5C278.298 35.4 278.414 35.1867 278.541 34.86L278.721 34.38H278.911L278.651 35.11C278.511 35.5167 278.314 35.79 278.061 35.93C277.808 36.07 277.554 36.14 277.301 36.14C277.014 36.14 276.794 36.0767 276.641 35.95C276.494 35.8233 276.414 35.64 276.401 35.4C276.388 35.16 276.434 34.8767 276.541 34.55L277.521 31.68ZM283.014 35.16C283.047 35.3333 283.09 35.4533 283.144 35.52C283.197 35.5867 283.267 35.62 283.354 35.62C283.447 35.62 283.54 35.5667 283.634 35.46C283.734 35.3467 283.844 35.1133 283.964 34.76L284.094 34.39H284.284L284.034 35.12C283.94 35.4 283.82 35.6133 283.674 35.76C283.527 35.9067 283.367 36.0067 283.194 36.06C283.02 36.1133 282.854 36.14 282.694 36.14C282.4 36.14 282.15 36.07 281.944 35.93C281.744 35.79 281.624 35.5333 281.584 35.16L281.184 31.67C281.157 31.4967 281.114 31.3833 281.054 31.33C280.994 31.2767 280.92 31.25 280.834 31.25C280.747 31.25 280.657 31.3 280.564 31.4C280.47 31.4933 280.36 31.7167 280.234 32.07L280.104 32.44H279.914L280.164 31.71C280.264 31.43 280.387 31.2167 280.534 31.07C280.68 30.9233 280.844 30.8233 281.024 30.77C281.204 30.7167 281.377 30.69 281.544 30.69C281.857 30.69 282.107 30.7633 282.294 30.91C282.48 31.05 282.594 31.33 282.634 31.75L283.014 35.16ZM283.504 31.4C283.257 31.6867 283.054 32.0167 282.894 32.39C282.734 32.7567 282.61 33.0867 282.524 33.38C282.524 33.38 282.49 33.38 282.424 33.38C282.357 33.3733 282.324 33.37 282.324 33.37C282.35 33.2567 282.404 33.0833 282.484 32.85C282.57 32.6167 282.68 32.3633 282.814 32.09C282.954 31.81 283.12 31.5467 283.314 31.3C283.5 31.0667 283.684 30.9067 283.864 30.82C284.05 30.7333 284.234 30.69 284.414 30.69C284.627 30.69 284.8 30.7467 284.934 30.86C285.074 30.9733 285.144 31.1367 285.144 31.35C285.144 31.5567 285.074 31.73 284.934 31.87C284.794 32.0033 284.614 32.07 284.394 32.07C284.207 32.07 284.03 32.0167 283.864 31.91C283.704 31.8033 283.584 31.6333 283.504 31.4ZM280.574 35.43C280.827 35.1433 281.044 34.8167 281.224 34.45C281.404 34.0833 281.54 33.75 281.634 33.45C281.634 33.45 281.664 33.4533 281.724 33.46C281.79 33.4667 281.824 33.47 281.824 33.47C281.77 33.6567 281.697 33.87 281.604 34.11C281.51 34.3433 281.394 34.5833 281.254 34.83C281.12 35.07 280.964 35.3033 280.784 35.53C280.59 35.7567 280.4 35.9133 280.214 36C280.027 36.0933 279.847 36.14 279.674 36.14C279.44 36.14 279.26 36.0833 279.134 35.97C279.007 35.8567 278.944 35.7033 278.944 35.51C278.944 35.2833 279.02 35.1033 279.174 34.97C279.32 34.83 279.497 34.76 279.704 34.76C279.924 34.76 280.104 34.8233 280.244 34.95C280.39 35.0767 280.5 35.2367 280.574 35.43ZM248.13 43.22C248.003 43.22 247.867 43.29 247.72 43.43C247.573 43.57 247.427 43.76 247.28 44C247.14 44.24 247.007 44.5167 246.88 44.83C246.76 45.1433 246.657 45.47 246.57 45.81L246.78 44.79C247.06 44.0367 247.353 43.5 247.66 43.18C247.967 42.8533 248.307 42.69 248.68 42.69C249.087 42.69 249.393 42.8233 249.6 43.09C249.813 43.35 249.92 43.73 249.92 44.23C249.92 44.5367 249.877 44.87 249.79 45.23C249.703 45.5833 249.577 45.9333 249.41 46.28C249.25 46.62 249.047 46.93 248.8 47.21C248.56 47.49 248.283 47.7167 247.97 47.89C247.657 48.0567 247.31 48.14 246.93 48.14C246.71 48.14 246.513 48.1 246.34 48.02C246.167 47.94 246.037 47.8333 245.95 47.7L246.03 47.54C246.097 47.6533 246.17 47.7333 246.25 47.78C246.33 47.8267 246.423 47.85 246.53 47.85C246.737 47.85 246.937 47.77 247.13 47.61C247.323 47.45 247.503 47.2367 247.67 46.97C247.837 46.7033 247.983 46.4067 248.11 46.08C248.243 45.7467 248.343 45.4067 248.41 45.06C248.483 44.7067 248.52 44.37 248.52 44.05C248.52 43.7233 248.483 43.5033 248.41 43.39C248.337 43.2767 248.243 43.22 248.13 43.22ZM243.86 47.64C243.973 47.64 244.1 47.5733 244.24 47.44C244.387 47.3067 244.54 47.1067 244.7 46.84C244.86 46.5667 245.017 46.23 245.17 45.83C245.323 45.43 245.463 44.97 245.59 44.45L245.42 45.53C245.207 46.1233 244.997 46.6133 244.79 47C244.59 47.3867 244.367 47.6733 244.12 47.86C243.88 48.0467 243.593 48.14 243.26 48.14C242.927 48.14 242.643 48.0267 242.41 47.8C242.183 47.5667 242.07 47.2 242.07 46.7C242.07 46.4067 242.113 46.08 242.2 45.72C242.287 45.36 242.417 45.0033 242.59 44.65C242.77 44.2967 242.99 43.9733 243.25 43.68C243.51 43.38 243.807 43.14 244.14 42.96C244.48 42.78 244.857 42.69 245.27 42.69C245.51 42.69 245.683 42.74 245.79 42.84C245.903 42.9333 245.977 43.0667 246.01 43.24L245.93 43.44C245.883 43.26 245.823 43.13 245.75 43.05C245.677 42.9633 245.563 42.92 245.41 42.92C245.243 42.92 245.07 43 244.89 43.16C244.717 43.3133 244.543 43.5267 244.37 43.8C244.203 44.0733 244.05 44.3833 243.91 44.73C243.777 45.0767 243.67 45.44 243.59 45.82C243.51 46.2 243.47 46.5767 243.47 46.95C243.47 47.1767 243.5 47.35 243.56 47.47C243.627 47.5833 243.727 47.64 243.86 47.64ZM248.74 40.36C248.633 40.36 248.537 40.38 248.45 40.42C248.37 40.4533 248.293 40.5 248.22 40.56C248.087 40.6733 247.973 40.8633 247.88 41.13C247.793 41.39 247.7 41.7 247.6 42.06L245.54 49.74C245.26 49.7467 245.003 49.76 244.77 49.78C244.543 49.8 244.32 49.8333 244.1 49.88L245.97 42.92C246.117 42.3533 246.283 41.8867 246.47 41.52C246.657 41.1467 246.883 40.8533 247.15 40.64C247.337 40.4867 247.55 40.3733 247.79 40.3C248.03 40.22 248.283 40.18 248.55 40.18C248.97 40.18 249.297 40.2667 249.53 40.44C249.763 40.6133 249.88 40.8467 249.88 41.14C249.88 41.3467 249.793 41.5433 249.62 41.73C249.453 41.9167 249.233 42.01 248.96 42.01C248.76 42.01 248.603 41.9633 248.49 41.87C248.377 41.7767 248.32 41.6433 248.32 41.47C248.32 41.25 248.387 41.0533 248.52 40.88C248.66 40.7067 248.847 40.5767 249.08 40.49C249.053 40.4567 249.01 40.4267 248.95 40.4C248.89 40.3733 248.82 40.36 248.74 40.36ZM251.973 47.6C252.079 47.6 252.196 47.5433 252.323 47.43C252.449 47.3167 252.579 47.1533 252.713 46.94C252.846 46.72 252.976 46.4533 253.103 46.14C253.229 45.8267 253.346 45.4633 253.453 45.05L253.233 46.14C252.979 46.8867 252.693 47.4067 252.373 47.7C252.053 47.9933 251.706 48.14 251.333 48.14C250.959 48.14 250.679 48.03 250.493 47.81C250.306 47.59 250.213 47.29 250.213 46.91C250.213 46.55 250.273 46.1733 250.393 45.78C250.519 45.3867 250.686 45.0067 250.893 44.64C251.106 44.2733 251.343 43.9433 251.603 43.65C251.869 43.3567 252.149 43.1233 252.443 42.95C252.743 42.7767 253.036 42.69 253.323 42.69C253.543 42.69 253.713 42.7767 253.833 42.95C253.953 43.1233 253.989 43.3933 253.943 43.76L253.833 43.82C253.866 43.58 253.853 43.3933 253.793 43.26C253.739 43.1267 253.646 43.06 253.513 43.06C253.339 43.06 253.149 43.18 252.943 43.42C252.736 43.6533 252.536 43.9633 252.343 44.35C252.156 44.73 251.999 45.1533 251.873 45.62C251.753 46.08 251.693 46.5333 251.693 46.98C251.693 47.2067 251.716 47.3667 251.763 47.46C251.809 47.5533 251.879 47.6 251.973 47.6ZM254.093 42.84C254.379 42.8333 254.639 42.82 254.873 42.8C255.106 42.7733 255.329 42.7367 255.543 42.69L254.233 47.15C254.213 47.2367 254.196 47.32 254.183 47.4C254.176 47.4733 254.186 47.5333 254.213 47.58C254.246 47.6267 254.299 47.65 254.373 47.65C254.459 47.65 254.556 47.6 254.663 47.5C254.769 47.3933 254.879 47.18 254.993 46.86L255.173 46.38H255.363L255.113 47.11C254.966 47.5167 254.766 47.79 254.513 47.93C254.266 48.07 254.026 48.14 253.793 48.14C253.446 48.14 253.199 48.0367 253.053 47.83C252.953 47.6833 252.906 47.5033 252.913 47.29C252.926 47.07 252.973 46.82 253.053 46.54L254.093 42.84ZM256.049 46.49C256.049 46.25 256.062 46.0367 256.089 45.85C256.115 45.6567 256.152 45.4467 256.199 45.22C256.292 44.8467 256.415 44.4333 256.569 43.98C256.722 43.5267 256.915 43.0833 257.149 42.65C257.382 42.2167 257.652 41.8467 257.959 41.54C258.119 41.38 258.299 41.2433 258.499 41.13C258.705 41.0167 258.965 40.9233 259.279 40.85C259.559 40.7833 259.812 40.7367 260.039 40.71C260.272 40.6833 260.502 40.6567 260.729 40.63C261.049 40.59 261.292 40.5367 261.459 40.47C261.632 40.3967 261.782 40.2867 261.909 40.14L262.049 40.18C261.909 40.5 261.772 40.7667 261.639 40.98C261.512 41.1867 261.355 41.3667 261.169 41.52C261.002 41.6467 260.832 41.7367 260.659 41.79C260.485 41.8433 260.282 41.8867 260.049 41.92C259.862 41.9467 259.682 41.97 259.509 41.99C259.335 42.0033 259.152 42.0267 258.959 42.06C258.599 42.12 258.302 42.2067 258.069 42.32C257.835 42.4267 257.639 42.5733 257.479 42.76C257.319 42.9467 257.172 43.1867 257.039 43.48C256.912 43.7733 256.765 44.13 256.599 44.55L256.049 46.49ZM259.239 42.89C259.085 42.89 258.922 42.9833 258.749 43.17C258.582 43.35 258.419 43.5933 258.259 43.9C258.099 44.2067 257.952 44.55 257.819 44.93C257.685 45.31 257.579 45.7033 257.499 46.11C257.425 46.51 257.389 46.8933 257.389 47.26C257.389 47.5 257.415 47.6733 257.469 47.78C257.529 47.8867 257.619 47.94 257.739 47.94C257.885 47.94 258.042 47.8533 258.209 47.68C258.382 47.5 258.549 47.26 258.709 46.96C258.869 46.66 259.012 46.3233 259.139 45.95C259.272 45.57 259.375 45.1767 259.449 44.77C259.529 44.3633 259.569 43.97 259.569 43.59C259.569 43.31 259.539 43.1233 259.479 43.03C259.425 42.9367 259.345 42.89 259.239 42.89ZM256.049 46.49C256.049 46.2167 256.092 45.91 256.179 45.57C256.272 45.23 256.405 44.8933 256.579 44.56C256.752 44.22 256.969 43.91 257.229 43.63C257.489 43.35 257.789 43.1233 258.129 42.95C258.475 42.7767 258.865 42.69 259.299 42.69C259.812 42.69 260.209 42.83 260.489 43.11C260.769 43.39 260.909 43.8 260.909 44.34C260.909 44.72 260.842 45.13 260.709 45.57C260.582 46.01 260.382 46.4267 260.109 46.82C259.842 47.2067 259.505 47.5233 259.099 47.77C258.692 48.0167 258.215 48.14 257.669 48.14C257.155 48.14 256.755 48 256.469 47.72C256.189 47.44 256.049 47.03 256.049 46.49ZM264.969 43.22C264.835 43.22 264.689 43.3067 264.529 43.48C264.375 43.6467 264.219 43.8767 264.059 44.17C263.905 44.4633 263.759 44.7967 263.619 45.17C263.479 45.5433 263.362 45.9333 263.269 46.34L263.449 45.32C263.769 44.38 264.092 43.7067 264.419 43.3C264.752 42.8933 265.119 42.69 265.519 42.69C265.925 42.69 266.232 42.8233 266.439 43.09C266.652 43.35 266.759 43.73 266.759 44.23C266.759 44.5367 266.715 44.87 266.629 45.23C266.549 45.5833 266.425 45.9333 266.259 46.28C266.092 46.62 265.885 46.93 265.639 47.21C265.399 47.49 265.122 47.7167 264.809 47.89C264.495 48.0567 264.149 48.14 263.769 48.14C263.555 48.14 263.359 48.1 263.179 48.02C263.005 47.94 262.879 47.8333 262.799 47.7L262.869 47.54C262.935 47.6533 263.009 47.7333 263.089 47.78C263.175 47.8267 263.272 47.85 263.379 47.85C263.579 47.85 263.772 47.77 263.959 47.61C264.145 47.45 264.319 47.2367 264.479 46.97C264.645 46.7033 264.789 46.4067 264.909 46.08C265.035 45.7467 265.132 45.4067 265.199 45.06C265.265 44.7067 265.299 44.37 265.299 44.05C265.299 43.7233 265.269 43.5033 265.209 43.39C265.149 43.2767 265.069 43.22 264.969 43.22ZM263.269 41.42C263.549 41.4 263.809 41.3667 264.049 41.32C264.295 41.2733 264.532 41.2133 264.759 41.14L262.599 48.75C262.505 49.0967 262.529 49.3233 262.669 49.43C262.809 49.5367 263.042 49.5933 263.369 49.6L263.309 49.81C263.155 49.8033 262.935 49.7933 262.649 49.78C262.362 49.7733 262.055 49.77 261.729 49.77C261.462 49.77 261.195 49.7733 260.929 49.78C260.662 49.7933 260.459 49.8033 260.319 49.81L260.379 49.6C260.619 49.6 260.792 49.5533 260.899 49.46C261.005 49.3733 261.092 49.2133 261.159 48.98L263.269 41.42ZM261.339 44.5C261.579 44.24 261.805 43.9833 262.019 43.73C262.232 43.47 262.439 43.1633 262.639 42.81C262.839 42.4567 263.045 42.0133 263.259 41.48L263.289 41.64C263.069 42.3333 262.802 42.9033 262.489 43.35C262.182 43.7967 261.835 44.2233 261.449 44.63L261.339 44.5ZM270.989 44.49C270.742 45.2233 270.505 45.83 270.279 46.31C270.052 46.7833 269.829 47.1533 269.609 47.42C269.395 47.68 269.175 47.8667 268.949 47.98C268.722 48.0867 268.482 48.14 268.229 48.14C267.809 48.14 267.535 48.0067 267.409 47.74C267.282 47.4733 267.299 47.1033 267.459 46.63L268.429 43.68C268.495 43.4867 268.509 43.3567 268.469 43.29C268.435 43.2167 268.379 43.18 268.299 43.18C268.212 43.18 268.115 43.23 268.009 43.33C267.902 43.4233 267.789 43.6367 267.669 43.97L267.489 44.45H267.299L267.549 43.72C267.695 43.3 267.895 43.0233 268.149 42.89C268.402 42.7567 268.649 42.69 268.889 42.69C269.189 42.69 269.412 42.7567 269.559 42.89C269.705 43.0167 269.785 43.2 269.799 43.44C269.812 43.6733 269.765 43.9533 269.659 44.28L268.759 46.98C268.612 47.42 268.645 47.64 268.859 47.64C269.019 47.64 269.202 47.5133 269.409 47.26C269.615 47 269.829 46.6533 270.049 46.22C270.275 45.78 270.492 45.2833 270.699 44.73C270.905 44.1767 271.085 43.6033 271.239 43.01L270.989 44.49ZM271.479 47.15C271.432 47.3167 271.412 47.4433 271.419 47.53C271.425 47.61 271.482 47.65 271.589 47.65C271.709 47.65 271.819 47.5933 271.919 47.48C272.025 47.36 272.129 47.1533 272.229 46.86L272.419 46.35H272.609L272.339 47.11C272.205 47.5033 272.015 47.7733 271.769 47.92C271.522 48.0667 271.265 48.14 270.999 48.14C270.819 48.14 270.665 48.11 270.539 48.05C270.419 47.99 270.325 47.9067 270.259 47.8C270.192 47.6733 270.162 47.5233 270.169 47.35C270.182 47.17 270.215 46.9667 270.269 46.74L271.279 42.83C271.552 42.8233 271.809 42.81 272.049 42.79C272.295 42.77 272.522 42.7367 272.729 42.69L271.479 47.15ZM277.255 47.23C277.229 47.39 277.225 47.5 277.245 47.56C277.272 47.62 277.325 47.65 277.405 47.65C277.499 47.65 277.595 47.6 277.695 47.5C277.795 47.3933 277.905 47.18 278.025 46.86L278.195 46.38H278.385L278.135 47.11C278.049 47.3767 277.925 47.5867 277.765 47.74C277.612 47.8867 277.442 47.99 277.255 48.05C277.075 48.11 276.899 48.14 276.725 48.14C276.399 48.14 276.159 48.0467 276.005 47.86C275.852 47.6667 275.819 47.3767 275.905 46.99L276.035 46.4C276.115 46.0467 276.095 45.79 275.975 45.63C275.855 45.47 275.579 45.37 275.145 45.33V45.29C275.452 45.27 275.749 45.27 276.035 45.29C276.322 45.31 276.575 45.37 276.795 45.47C277.015 45.5633 277.179 45.71 277.285 45.91C277.399 46.1033 277.425 46.3567 277.365 46.67L277.255 47.23ZM277.725 42.89C277.632 42.89 277.552 42.9033 277.485 42.93C277.419 42.9567 277.355 42.9933 277.295 43.04C277.175 43.1467 277.075 43.2933 276.995 43.48C276.922 43.6667 276.845 43.8667 276.765 44.08C276.692 44.2867 276.599 44.4867 276.485 44.68C276.372 44.8733 276.219 45.03 276.025 45.15C275.832 45.27 275.579 45.3267 275.265 45.32L275.165 45.33L275.185 45.22C275.492 45.2 275.735 45.1267 275.915 45C276.102 44.8733 276.245 44.7167 276.345 44.53C276.452 44.3433 276.539 44.15 276.605 43.95C276.672 43.7433 276.745 43.55 276.825 43.37C276.905 43.1833 277.012 43.0333 277.145 42.92C277.252 42.8333 277.362 42.7733 277.475 42.74C277.589 42.7067 277.689 42.69 277.775 42.69C278.095 42.69 278.329 42.7833 278.475 42.97C278.629 43.15 278.702 43.3633 278.695 43.61C278.695 43.8567 278.619 44.0633 278.465 44.23C278.312 44.39 278.109 44.47 277.855 44.47C277.642 44.47 277.482 44.4133 277.375 44.3C277.269 44.18 277.215 44.0433 277.215 43.89C277.222 43.6833 277.292 43.5 277.425 43.34C277.559 43.18 277.709 43.0567 277.875 42.97C277.862 42.9433 277.839 42.9233 277.805 42.91C277.779 42.8967 277.752 42.89 277.725 42.89ZM274.545 48H273.135L274.405 43.68C274.432 43.5867 274.452 43.5033 274.465 43.43C274.479 43.3567 274.472 43.2967 274.445 43.25C274.425 43.2033 274.379 43.18 274.305 43.18C274.185 43.18 274.072 43.24 273.965 43.36C273.865 43.4733 273.759 43.6767 273.645 43.97L273.455 44.48H273.265L273.535 43.72C273.675 43.34 273.859 43.0733 274.085 42.92C274.312 42.7667 274.572 42.69 274.865 42.69C275.179 42.69 275.395 42.7633 275.515 42.91C275.635 43.0567 275.695 43.24 275.695 43.46C275.695 43.6733 275.665 43.8833 275.605 44.09L274.545 48Z" fill="#B78D41"/>
</svg>
